<?xml version="1.0" encoding="UTF-8"?>
<svg id="Layer_1" data-name="Layer 1" xmlns="http://www.w3.org/2000/svg" version="1.1" viewBox="0 0 60 60">
  <path d="M54.0097,12.364c-1.3323-1.8335-2.8706-3.5077-4.5759-4.9916C44.1625,2.781,37.2791-.0043,29.7549-.0043S15.3473,2.781,10.0721,7.3724c-1.7053,1.4839-3.2396,3.1581-4.5759,4.9916C1.8875,17.3167-.2451,23.4154-.2451,29.9996c0,16.5402,13.4559,29.9961,30,29.9961s30-13.4559,30-29.9961c0-6.5842-2.1326-12.6829-5.7452-17.6356ZM29.7549,6.5994c5.8772,0,11.2495,2.1753,15.3632,5.7646-4.1137,3.5893-9.486,5.7646-15.3632,5.7646s-11.2495-2.1753-15.3632-5.7646c4.1137-3.5893,9.4859-5.7646,15.3632-5.7646ZM29.7549,53.3921c-12.9004,0-23.3963-10.4921-23.3963-23.3925,0-4.6536,1.3673-8.9965,3.7135-12.644,5.2752,4.5914,12.1585,7.3766,19.6828,7.3766s14.4076-2.7852,19.6789-7.3766c2.3501,3.6475,3.7175,7.9904,3.7175,12.644,0,12.9004-10.496,23.3925-23.3964,23.3925Z" fill="#e8e8e8" stroke-width="0"/>
</svg>