<?xml version="1.0" encoding="UTF-8"?>
<svg id="Layer_1" data-name="Layer 1" xmlns="http://www.w3.org/2000/svg" version="1.1" viewBox="0 0 60 60">
  <path d="M54.2548,12.3683c-1.3323-1.8335-2.8706-3.5077-4.5759-4.9916C44.4076,2.7853,37.5242,0,30,0S15.5924,2.7853,10.3172,7.3767c-1.7053,1.4839-3.2396,3.1581-4.5759,4.9916C2.1326,17.321,0,23.4197,0,30.0039c0,16.5402,13.4559,29.9961,30,29.9961s30-13.4559,30-29.9961c0-6.5842-2.1326-12.6829-5.7452-17.6356ZM30,6.6037c5.8772,0,11.2495,2.1753,15.3632,5.7646-4.1137,3.5893-9.486,5.7646-15.3632,5.7646s-11.2495-2.1753-15.3632-5.7646c4.1137-3.5893,9.4859-5.7646,15.3632-5.7646ZM30,53.3964c-12.9004,0-23.3963-10.4921-23.3963-23.3925,0-4.6536,1.3673-8.9965,3.7135-12.644,5.2752,4.5914,12.1585,7.3766,19.6828,7.3766s14.4076-2.7852,19.6789-7.3766c2.3501,3.6475,3.7175,7.9904,3.7175,12.644,0,12.9004-10.496,23.3925-23.3964,23.3925Z" fill="#e8e8e8" stroke-width="0"/>
  <path d="M54.2548,12.3683c-.7826-1.077-1.6362-2.099-2.553-3.0597-.9769-1.0237-2.6271-.965-3.518.1343-.8539,1.0537-1.7984,2.0321-2.8206,2.9254-4.1137,3.5893-9.486,5.7646-15.3632,5.7646s-11.2495-2.1753-15.3632-5.7646c-1.0229-.8938-1.9679-1.873-2.8231-2.9274-.8913-1.0988-2.5414-1.1566-3.5178-.1327-.9162.9609-1.7696,1.983-2.5546,3.0601C2.1326,17.321,0,23.4197,0,30.0039c0,17.077,14.3435,30.8663,31.6202,29.9532,15.252-.806,27.5762-13.1629,28.3412-28.4171.3596-7.1701-1.8146-13.8359-5.7066-19.1717ZM30,53.3964c-12.9004,0-23.3963-10.4921-23.3963-23.3925,0-4.6536,1.3673-8.9965,3.7135-12.644,5.2752,4.5914,12.1585,7.3766,19.6828,7.3766s14.4076-2.7852,19.6789-7.3766c2.3501,3.6475,3.7175,7.9904,3.7175,12.644,0,12.9004-10.496,23.3925-23.3964,23.3925Z" fill="#d33383" stroke-width="0"/>
</svg>