<?xml version="1.0" encoding="UTF-8"?>
<svg id="Layer_1" data-name="Layer 1" xmlns="http://www.w3.org/2000/svg" version="1.1" viewBox="0 0 12 15">
  <path d="M11.98,2.5765c.06-.22,0-.4301-.16-.59-.15-.15-.37-.21-.58-.15l-3.44.92c-.11.03-.21.09-.28.17-.98-.3-2.0601-.3-3.04,0-.07-.08-.17-.14-.28-.17L.76,1.8365c-.21-.06-.43,0-.58.15-.16.16-.22.37-.16.59l.92,3.44c.02.0699.06.14.11.21-.19.55-.29,1.13-.29,1.71,0,2.89,2.35,5.25,5.24,5.25s5.24-2.36,5.24-5.25c0-.58-.1-1.16-.29-1.71.05-.07.09-.14.11-.21l.92-3.44Z" fill="#e9e9e9" stroke-width="0"/>
</svg>