<?xml version="1.0" encoding="UTF-8"?>
<svg id="Layer_1" data-name="Layer 1" xmlns="http://www.w3.org/2000/svg" version="1.1" viewBox="0 0 102 60">
  <defs>
    <style>
      .cls-1 {
        fill: #e8e8e8;
      }

      .cls-1, .cls-2 {
        stroke-width: 0px;
      }

      .cls-2 {
        fill: #bfbfbf;
      }
    </style>
  </defs>
  <g>
    <path class="cls-1" d="M2.6,17.9c-1,2.1-1.6,4.3-2,6.5-1.3,6.9-.4,14.2,3.5,20.7,3.7,6.4,9.5,11.1,16.1,13.3,2.1.8,4.4,1.3,6.6,1.5,6,.7,12.4-.6,18.1-3.9,14.3-8.2,19.2-26.6,11-41C47.7.7,29.2-4.2,14.9,4c-5.7,3.3-9.9,8.3-12.3,13.8ZM9.6,41.9c-2.9-5.1-3.8-10.8-2.7-16.2,5.3,1.7,9.7,5.4,12.7,10.4,2.9,5.1,3.8,10.8,2.7,16.2-5.3-1.7-9.7-5.4-12.7-10.4ZM50.2,18.3c6.4,11.2,2.6,25.5-8.6,32-4,2.3-8.5,3.3-12.8,3.1,1.3-6.9.4-14.2-3.5-20.7-3.8-6.6-9.6-11.1-16.2-13.4,2-3.8,5.1-7.2,9.1-9.5,11.2-6.4,25.5-2.6,32,8.6h0Z"/>
    <path class="cls-2" d="M2.6,17.9c-.6,1.2-1,2.4-1.3,3.8-.5,1.4.5,2.7,1.9,2.9s2.7.5,3.9,1c5.3,1.7,9.7,5.4,12.7,10.4s3.8,10.8,2.7,16.2c-.3,1.3-.6,2.7-1.1,3.9-.5,1.3.2,2.8,1.7,3.1,1.3.3,2.5.6,3.9.6,6,.7,12.3-.5,18-3.8,14.7-8.5,19.5-27.8,10.2-42.4C46.9.8,30-3.7,16.4,3.2c-6.3,3.2-11,8.5-13.7,14.6h0ZM50.2,18.3c6.4,11.2,2.6,25.5-8.6,32-4,2.3-8.5,3.3-12.8,3.1,1.3-6.9.4-14.2-3.5-20.7-3.8-6.6-9.6-11.1-16.2-13.4,2-3.8,5.1-7.2,9.1-9.5,11.2-6.4,25.5-2.6,32,8.6h0Z"/>
  </g>
  <g>
    <path class="cls-1" d="M69.1,22.3h24c1.7,0,3,1.3,3,3h0c0,1.7-1.3,3-3,3h-24c-1.7,0-3-1.3-3-3h0c0-1.7,1.3-3,3-3Z"/>
    <path class="cls-1" d="M69.1,34.3h24c1.7,0,3,1.3,3,3h0c0,1.7-1.3,3-3,3h-24c-1.7,0-3-1.3-3-3h0c0-1.7,1.3-3,3-3Z"/>
  </g>
</svg>