<?xml version="1.0" encoding="UTF-8"?>
<svg id="Layer_1" data-name="Layer 1" xmlns="http://www.w3.org/2000/svg" version="1.1" viewBox="0 0 102 60">
  <defs>
    <style>
      .cls-1 {
        fill: #e8e8e8;
      }

      .cls-1, .cls-2 {
        stroke-width: 0px;
      }

      .cls-2 {
        fill: #bfbfbf;
      }
    </style>
  </defs>
  <g>
    <path class="cls-1" d="M47.7,54.2c1.9-1.3,3.5-2.9,5-4.6,4.6-5.3,7.4-12.1,7.3-19.7,0-7.4-2.7-14.4-7.3-19.6-1.4-1.7-3.2-3.3-5-4.6C42.8,2.1,36.7,0,30.1,0,13.6-.1.2,13.4.1,30c0,16.5,13.5,30,30,30,6.6,0,12.7-2.2,17.6-5.8ZM53.6,29.9c0,5.9-2.1,11.3-5.8,15.4-3.7-4.1-5.7-9.5-5.8-15.4,0-5.9,2.1-11.3,5.8-15.4,3.7,4.1,5.7,9.5,5.8,15.4ZM6.7,30c0-12.9,10.5-23.4,23.4-23.4,4.6,0,9,1.4,12.6,3.7-4.6,5.3-7.4,12.1-7.3,19.7,0,7.6,2.8,14.4,7.3,19.7-3.6,2.3-8,3.7-12.6,3.7-12.9,0-23.4-10.5-23.4-23.4h0Z"/>
    <path class="cls-2" d="M47.7,54.2c1.1-.7,2.1-1.6,3-2.6,1.1-1,.9-2.6-.2-3.5s-2.1-1.8-2.9-2.8c-3.7-4.1-5.7-9.5-5.8-15.4s2.1-11.3,5.8-15.4c.9-1,1.9-2,2.9-2.8,1.1-.9,1.2-2.5.1-3.5-1-.9-1.9-1.8-3.1-2.5C42.7,2.1,36.6,0,30,0,13,0-.8,14.3,0,31.6c.8,15.2,13.2,27.6,28.4,28.4,7.1.4,13.8-1.9,19.2-5.8h0ZM6.7,30c0-12.9,10.5-23.4,23.4-23.4,4.6,0,9,1.4,12.6,3.7-4.6,5.3-7.4,12.1-7.3,19.7,0,7.6,2.8,14.4,7.3,19.7-3.6,2.3-8,3.7-12.6,3.7-12.9,0-23.4-10.5-23.4-23.4h0Z"/>
  </g>
  <g>
    <path class="cls-1" d="M69.1,22.3h24c1.7,0,3,1.3,3,3h0c0,1.7-1.3,3-3,3h-24c-1.7,0-3-1.3-3-3h0c0-1.7,1.3-3,3-3Z"/>
    <path class="cls-1" d="M69.1,34.3h24c1.7,0,3,1.3,3,3h0c0,1.7-1.3,3-3,3h-24c-1.7,0-3-1.3-3-3h0c0-1.7,1.3-3,3-3Z"/>
  </g>
</svg>