<?xml version="1.0" encoding="UTF-8"?>
<svg id="Layer_1" data-name="Layer 1" xmlns="http://www.w3.org/2000/svg" version="1.1" viewBox="0 0 102 60">
  <defs>
    <style>
      .cls-1 {
        fill: #e8e8e8;
      }

      .cls-1, .cls-2 {
        stroke-width: 0px;
      }

      .cls-2 {
        fill: #bfbfbf;
      }
    </style>
  </defs>
  <g>
    <path class="cls-1" d="M59.8,26.9c-.2-2.3-.7-4.5-1.5-6.6-2.3-6.6-6.8-12.5-13.4-16.2C38.5.3,31.1-.8,24.3.6c-2.2.4-4.4,1.1-6.5,2-5.6,2.5-10.5,6.7-13.8,12.4C-4.3,29.3.7,47.7,15,56c14.3,8.3,32.7,3.3,41-11,3.3-5.7,4.5-12.1,3.8-18.1ZM41.7,9.7c5.1,2.9,8.7,7.5,10.4,12.7-5.4,1.1-11.1.2-16.2-2.7-5.1-2.9-8.7-7.5-10.4-12.7,5.4-1.1,11.1-.2,16.2,2.7ZM18.3,50.3c-11.2-6.5-15-20.8-8.6-32,2.3-4,5.7-7.1,9.5-9.1,2.3,6.6,6.8,12.5,13.4,16.2s13.9,4.8,20.7,3.5c.2,4.3-.8,8.8-3.1,12.8-6.5,11.2-20.8,15-32,8.6Z"/>
    <path class="cls-2" d="M59.8,26.9c-.1-1.3-.4-2.6-.7-3.9-.3-1.4-1.8-2.1-3.1-1.6-1.3.5-2.6.9-3.9,1.1-5.4,1.1-11.1.2-16.2-2.7s-8.7-7.5-10.4-12.7c-.4-1.3-.8-2.6-1-3.9-.2-1.4-1.6-2.3-3-1.9-1.3.4-2.5.8-3.7,1.4-5.6,2.5-10.5,6.7-13.8,12.4-8.5,14.8-3,33.9,12.4,41.8,13.6,6.9,30.5,2.4,38.8-10.4,3.9-6,5.3-12.9,4.6-19.5ZM18.3,50.3c-11.2-6.5-15-20.8-8.6-32,2.3-4,5.7-7.1,9.5-9.1,2.3,6.6,6.8,12.5,13.4,16.2s13.9,4.8,20.7,3.5c.2,4.3-.8,8.8-3.1,12.8-6.5,11.2-20.8,15-32,8.6Z"/>
  </g>
  <g>
    <rect class="cls-1" x="66" y="22.4" width="30" height="6" rx="3" ry="3"/>
    <rect class="cls-1" x="66" y="34.4" width="30" height="6" rx="3" ry="3"/>
  </g>
</svg>