<?xml version="1.0" encoding="UTF-8"?>
<svg id="Layer_1" data-name="Layer 1" xmlns="http://www.w3.org/2000/svg" version="1.1" viewBox="0 0 102 60">
  <defs>
    <style>
      .cls-1 {
        fill: #e8e8e8;
      }

      .cls-1, .cls-2 {
        stroke-width: 0px;
      }

      .cls-2 {
        fill: #bfbfbf;
      }
    </style>
  </defs>
  <g>
    <path class="cls-1" d="M17.9,57.4c2.1,1,4.3,1.6,6.5,2,6.9,1.3,14.2.4,20.7-3.5,6.4-3.7,11.1-9.5,13.3-16.1.8-2.1,1.3-4.4,1.5-6.6.7-6-.6-12.4-3.9-18.1C47.9.7,29.5-4.1,15.1,4.1.8,12.3-4.2,30.8,4.1,45.1c3.3,5.7,8.3,9.9,13.8,12.3ZM41.9,50.4c-5.1,2.9-10.8,3.8-16.2,2.7,1.7-5.3,5.4-9.7,10.4-12.7,5.1-2.9,10.8-3.8,16.2-2.7-1.7,5.3-5.4,9.7-10.4,12.7ZM18.4,9.8c11.2-6.4,25.5-2.6,32,8.6s3.3,8.5,3.1,12.8c-6.9-1.3-14.2-.4-20.7,3.5-6.6,3.8-11.1,9.6-13.4,16.2-3.8-2-7.2-5.1-9.5-9.1-6.4-11.2-2.6-25.5,8.6-32h0Z"/>
    <path class="cls-2" d="M17.9,57.4c1.2.6,2.4,1,3.8,1.3,1.4.5,2.7-.5,2.9-1.9s.5-2.7,1-3.9c1.7-5.3,5.4-9.7,10.4-12.7,5.1-3,10.8-3.8,16.2-2.7,1.3.3,2.7.6,3.9,1.1,1.3.5,2.8-.2,3.1-1.7.3-1.3.6-2.5.6-3.9.7-6-.5-12.3-3.8-18C47.5.3,28.2-4.5,13.6,4.8.9,13.1-3.7,30,3.2,43.6c3.2,6.3,8.5,11,14.6,13.7h0ZM18.4,9.8c11.2-6.4,25.5-2.6,32,8.6s3.3,8.5,3.1,12.8c-6.9-1.3-14.2-.4-20.7,3.5-6.6,3.8-11.1,9.6-13.4,16.2-3.8-2-7.2-5.1-9.5-9.1-6.4-11.2-2.6-25.5,8.6-32h0Z"/>
  </g>
  <g>
    <path class="cls-1" d="M69.1,22.3h24c1.7,0,3,1.3,3,3h0c0,1.7-1.3,3-3,3h-24c-1.7,0-3-1.3-3-3h0c0-1.7,1.3-3,3-3Z"/>
    <path class="cls-1" d="M69.1,34.3h24c1.7,0,3,1.3,3,3h0c0,1.7-1.3,3-3,3h-24c-1.7,0-3-1.3-3-3h0c0-1.7,1.3-3,3-3Z"/>
  </g>
</svg>