<?xml version="1.0" encoding="UTF-8"?>
<svg id="Layer_1" data-name="Layer 1" xmlns="http://www.w3.org/2000/svg" version="1.1" viewBox="0 0 102 60">
  <defs>
    <style>
      .cls-1 {
        fill: #e8e8e8;
      }

      .cls-1, .cls-2 {
        stroke-width: 0px;
      }

      .cls-2 {
        fill: #bfbfbf;
      }
    </style>
  </defs>
  <g>
    <path class="cls-1" d="M26.8.2c-2.3.2-4.5.8-6.6,1.5C13.6,4,7.8,8.5,4,15.1.3,21.5-.8,28.9.6,35.7c.4,2.2,1.1,4.5,2,6.5,2.4,5.6,6.7,10.4,12.4,13.7,14.2,8.3,32.6,3.3,41-11,8.2-14.3,3.3-32.7-11-41C39.3.7,32.9-.5,26.8.2ZM9.6,18.3c2.9-5.1,7.5-8.7,12.7-10.4,1.2,5.4.2,11.1-2.7,16.2-2.9,5.1-7.5,8.7-12.7,10.4-1.2-5.4-.2-11.1,2.7-16.2ZM50.3,41.7c-6.4,11.2-20.8,15-32,8.6-4-2.3-7.1-5.7-9.1-9.5,6.6-2.3,12.5-6.8,16.2-13.4,3.8-6.6,4.8-13.9,3.5-20.7,4.3-.2,8.8.8,12.8,3.1,11.2,6.4,15,20.8,8.6,32h0Z"/>
    <path class="cls-2" d="M26.8.2c-1.3,0-2.6.3-3.9.8-1.5.3-2.1,1.8-1.6,3.1s.9,2.6,1.1,3.9c1.2,5.4.2,11.1-2.7,16.2s-7.5,8.7-12.7,10.4c-1.3.4-2.6.8-3.9,1-1.4.2-2.3,1.6-1.8,3,.4,1.3.7,2.5,1.4,3.7,2.4,5.5,6.6,10.4,12.3,13.7,14.7,8.5,33.8,3,41.8-12.4,6.9-13.6,2.4-30.5-10.4-38.8C40.5.9,33.6-.4,26.9.2h0ZM50.3,41.7c-6.4,11.2-20.8,15-32,8.6-4-2.3-7.1-5.7-9.1-9.5,6.6-2.3,12.5-6.8,16.2-13.4,3.8-6.6,4.8-13.9,3.5-20.7,4.3-.2,8.8.8,12.8,3.1,11.2,6.4,15,20.8,8.6,32h0Z"/>
  </g>
  <g>
    <path class="cls-1" d="M69.1,22.3h24c1.7,0,3,1.3,3,3h0c0,1.7-1.3,3-3,3h-24c-1.7,0-3-1.3-3-3h0c0-1.7,1.3-3,3-3Z"/>
    <path class="cls-1" d="M69.1,34.3h24c1.7,0,3,1.3,3,3h0c0,1.7-1.3,3-3,3h-24c-1.7,0-3-1.3-3-3h0c0-1.7,1.3-3,3-3Z"/>
  </g>
</svg>