<?xml version="1.0" encoding="UTF-8"?>
<svg id="Layer_1" data-name="Layer 1" xmlns="http://www.w3.org/2000/svg" version="1.1" viewBox="0 0 102 60">
  <defs>
    <style>
      .cls-1 {
        fill: #e8e8e8;
      }

      .cls-1, .cls-2 {
        stroke-width: 0px;
      }

      .cls-2 {
        fill: #bfbfbf;
      }
    </style>
  </defs>
  <g>
    <path class="cls-1" d="M57.4,42.1c1-2.1,1.6-4.2,2-6.5,1.3-6.9.4-14.2-3.5-20.7-3.6-6.5-9.5-11.1-16.1-13.3-2.1-.8-4.4-1.2-6.6-1.5-6.1-.6-12.4.6-18.2,3.8C.7,12.2-4.2,30.6,4.1,45c8.2,14.3,26.7,19.2,41,11,5.7-3.3,9.9-8.2,12.3-13.8ZM50.3,18.2c3,5.1,3.8,10.8,2.7,16.2-5.2-1.7-9.7-5.4-12.7-10.4-3-5.1-3.8-10.8-2.7-16.2,5.2,1.7,9.7,5.4,12.7,10.4ZM9.8,41.7c-6.4-11.2-2.6-25.5,8.6-32,4-2.3,8.5-3.3,12.8-3.1-1.3,6.9-.4,14.2,3.5,20.7,3.9,6.5,9.6,11.1,16.2,13.4-2,3.8-5.1,7.2-9.1,9.5-11.2,6.4-25.5,2.6-32-8.6h0Z"/>
    <path class="cls-2" d="M57.4,42.1c.6-1.2,1-2.5,1.3-3.7.4-1.4-.5-2.7-1.9-2.9s-2.7-.5-3.9-1c-5.2-1.7-9.7-5.4-12.7-10.4s-3.8-10.8-2.7-16.2c.3-1.3.6-2.7,1.1-3.9.5-1.3-.2-2.8-1.6-3.1-1.3-.3-2.6-.6-3.9-.6-6.1-.6-12.4.6-18.2,3.8C.2,12.6-4.6,31.9,4.8,46.4c8.3,12.8,25.2,17.3,38.8,10.4,6.4-3.2,11-8.5,13.7-14.6h0ZM9.8,41.7c-6.4-11.2-2.6-25.5,8.6-32,4-2.3,8.5-3.3,12.8-3.1-1.3,6.9-.4,14.2,3.5,20.7,3.9,6.5,9.6,11.1,16.2,13.4-2,3.8-5.1,7.2-9.1,9.5-11.2,6.4-25.5,2.6-32-8.6h0Z"/>
  </g>
  <g>
    <path class="cls-1" d="M69,22.3h24c1.7,0,3,1.3,3,3h0c0,1.7-1.3,3-3,3h-24c-1.7,0-3-1.3-3-3h0c0-1.7,1.3-3,3-3Z"/>
    <path class="cls-1" d="M69,34.3h24c1.7,0,3,1.3,3,3h0c0,1.7-1.3,3-3,3h-24c-1.7,0-3-1.3-3-3h0c0-1.7,1.3-3,3-3Z"/>
  </g>
</svg>