<?xml version="1.0" encoding="UTF-8"?>
<svg id="Layer_1" data-name="Layer 1" xmlns="http://www.w3.org/2000/svg" version="1.1" viewBox="0 0 102 60">
  <defs>
    <style>
      .cls-1 {
        fill: #e8e8e8;
      }

      .cls-1, .cls-2 {
        stroke-width: 0px;
      }

      .cls-2 {
        fill: #bfbfbf;
      }
    </style>
  </defs>
  <g>
    <path class="cls-1" d="M.2,33.2c.2,2.3.8,4.5,1.5,6.6,2.3,6.6,6.8,12.5,13.4,16.2,6.4,3.7,13.8,4.9,20.6,3.5,2.2-.4,4.5-1.1,6.5-2,5.6-2.4,10.4-6.7,13.7-12.4,8.3-14.2,3.3-32.6-11-41C30.7-4.2,12.2.8,4,15.1.7,20.8-.5,27.1.2,33.2ZM18.3,50.5c-5.1-2.9-8.7-7.5-10.4-12.7,5.4-1.2,11.1-.2,16.2,2.7,5.1,2.9,8.7,7.5,10.4,12.7-5.4,1.2-11.1.2-16.2-2.7ZM41.6,9.8c11.2,6.4,15,20.8,8.6,32-2.3,4-5.7,7.1-9.5,9.1-2.3-6.6-6.8-12.5-13.4-16.2-6.6-3.8-13.9-4.8-20.7-3.5-.2-4.3.8-8.8,3.1-12.8,6.4-11.2,20.8-15,32-8.6h0Z"/>
    <path class="cls-2" d="M.2,33.2c0,1.3.3,2.6.8,3.9.3,1.5,1.8,2.1,3.1,1.6s2.6-.9,3.9-1.1c5.4-1.2,11.1-.2,16.2,2.7,5.2,2.9,8.7,7.5,10.4,12.7.4,1.3.8,2.6,1,3.9.2,1.4,1.6,2.3,3,1.8,1.3-.4,2.5-.7,3.7-1.4,5.5-2.4,10.4-6.6,13.7-12.3,8.5-14.7,3-33.8-12.4-41.8C30-3.7,13.1.8,4.8,13.6.9,19.5-.4,26.5.2,33.1h0ZM41.6,9.8c11.2,6.4,15,20.8,8.6,32-2.3,4-5.7,7.1-9.5,9.1-2.3-6.6-6.8-12.5-13.4-16.2-6.6-3.8-13.9-4.8-20.7-3.5-.2-4.3.8-8.8,3.1-12.8,6.4-11.2,20.8-15,32-8.6h0Z"/>
  </g>
  <g>
    <path class="cls-1" d="M69.1,22.3h24c1.7,0,3,1.3,3,3h0c0,1.7-1.3,3-3,3h-24c-1.7,0-3-1.3-3-3h0c0-1.7,1.3-3,3-3Z"/>
    <path class="cls-1" d="M69.1,34.3h24c1.7,0,3,1.3,3,3h0c0,1.7-1.3,3-3,3h-24c-1.7,0-3-1.3-3-3h0c0-1.7,1.3-3,3-3Z"/>
  </g>
</svg>