<?xml version="1.0" encoding="UTF-8"?>
<svg id="Layer_1" data-name="Layer 1" xmlns="http://www.w3.org/2000/svg" version="1.1" viewBox="0 0 60 60">
  <defs>
    <style>
      .cls-1 {
        fill: #e8e8e8;
      }

      .cls-1, .cls-2 {
        stroke-width: 0px;
      }

      .cls-2 {
        fill: #d33383;
      }
    </style>
  </defs>
  <path class="cls-1" d="M30,60C13.5,60,0,46.5,0,30S13.5,0,30,0s30,13.5,30,30-13.5,30-30,30ZM30,6.6c-12.9,0-23.4,10.5-23.4,23.4s10.5,23.4,23.4,23.4,23.4-10.5,23.4-23.4S42.9,6.6,30,6.6Z"/>
  <path class="cls-2" d="M30,60C13.5,60,0,46.5,0,30S2.7,15.7,7.5,10.2c.6-.7,1.5-1.1,2.5-1.1s1.9.4,2.5,1.1c4.4,5,10.8,7.9,17.6,7.9s13.1-2.9,17.6-7.9c.6-.7,1.5-1.1,2.5-1.1s1.9.4,2.5,1.1c4.8,5.5,7.5,12.5,7.5,19.8,0,16.5-13.5,30-30,30ZM10.3,17.4c-2.4,3.7-3.7,8.1-3.7,12.6,0,12.9,10.5,23.4,23.4,23.4s23.4-10.5,23.4-23.4-1.3-8.9-3.7-12.6c-5.4,4.7-12.4,7.4-19.7,7.4s-14.3-2.6-19.7-7.4Z"/>
</svg>