<?xml version="1.0" encoding="UTF-8"?>
<svg id="Layer_1" data-name="Layer 1" xmlns="http://www.w3.org/2000/svg" version="1.1" viewBox="0 0 102 60">
  <defs>
    <style>
      .cls-1 {
        fill: #e8e8e8;
      }

      .cls-1, .cls-2 {
        stroke-width: 0px;
      }

      .cls-2 {
        fill: #bfbfbf;
      }
    </style>
  </defs>
  <g>
    <path class="cls-1" d="M33.2,59.8c2.3-.2,4.5-.8,6.6-1.5,6.6-2.3,12.5-6.8,16.2-13.4,3.7-6.4,4.9-13.8,3.5-20.6-.4-2.2-1.1-4.5-2-6.5-2.4-5.6-6.7-10.4-12.4-13.7C30.8-4.3,12.5.7,4.1,15-4.1,29.3.8,47.8,15.1,56c5.7,3.3,12.1,4.4,18.1,3.8ZM50.5,41.7c-2.9,5.1-7.5,8.7-12.7,10.4-1.2-5.4-.2-11.1,2.7-16.2,2.9-5.1,7.5-8.7,12.7-10.4,1.2,5.4.2,11.1-2.7,16.2ZM9.8,18.3c6.4-11.2,20.8-15,32-8.6s7.1,5.7,9.1,9.5c-6.6,2.3-12.5,6.8-16.2,13.4-3.8,6.6-4.8,13.9-3.5,20.7-4.3.2-8.8-.8-12.8-3.1-11.2-6.4-15-20.8-8.6-32h0Z"/>
    <path class="cls-2" d="M33.2,59.8c1.3,0,2.6-.3,3.9-.8,1.5-.3,2.1-1.8,1.6-3.1s-.9-2.6-1.1-3.9c-1.2-5.4-.2-11.1,2.7-16.2s7.5-8.7,12.7-10.4c1.3-.4,2.6-.8,3.9-1,1.4-.2,2.3-1.6,1.8-3-.4-1.3-.7-2.5-1.4-3.7-2.4-5.5-6.6-10.4-12.3-13.7C30.3-4.5,11.2,1,3.2,16.4-3.7,29.9.9,46.9,13.6,55.2c5.9,3.9,12.9,5.3,19.5,4.6h0ZM9.8,18.3c6.4-11.2,20.8-15,32-8.6s7.1,5.7,9.1,9.5c-6.6,2.3-12.5,6.8-16.2,13.4-3.8,6.6-4.8,13.9-3.5,20.7-4.3.2-8.8-.8-12.8-3.1-11.2-6.4-15-20.8-8.6-32h0Z"/>
  </g>
  <g>
    <path class="cls-1" d="M69.1,22.3h24c1.7,0,3,1.3,3,3h0c0,1.7-1.3,3-3,3h-24c-1.7,0-3-1.3-3-3h0c0-1.7,1.3-3,3-3Z"/>
    <path class="cls-1" d="M69.1,34.3h24c1.7,0,3,1.3,3,3h0c0,1.7-1.3,3-3,3h-24c-1.7,0-3-1.3-3-3h0c0-1.7,1.3-3,3-3Z"/>
  </g>
</svg>