<?xml version="1.0" encoding="UTF-8"?>
<svg id="Layer_1" data-name="Layer 1" xmlns="http://www.w3.org/2000/svg" version="1.1" viewBox="0 0 102 60">
  <defs>
    <style>
      .cls-1 {
        fill: #e8e8e8;
      }

      .cls-1, .cls-2 {
        stroke-width: 0px;
      }

      .cls-2 {
        fill: #bfbfbf;
      }
    </style>
  </defs>
  <g>
    <path class="cls-1" d="M42.2,2.6c-2.1-1-4.3-1.6-6.5-2-6.9-1.3-14.2-.4-20.7,3.5C8.6,7.8,3.9,13.6,1.7,20.2c-.8,2.1-1.3,4.4-1.5,6.6-.7,6,.6,12.4,3.9,18.1,8.2,14.3,26.6,19.2,41,11,14.3-8.3,19.2-26.7,11-41-3.3-5.7-8.3-9.9-13.8-12.3ZM18.2,9.6c5.1-2.9,10.8-3.8,16.2-2.7-1.7,5.3-5.4,9.7-10.4,12.7-5.1,2.9-10.8,3.8-16.2,2.7,1.7-5.3,5.4-9.7,10.4-12.7ZM41.7,50.2c-11.2,6.4-25.5,2.6-32-8.6-2.3-4-3.3-8.5-3.1-12.8,6.9,1.3,14.2.4,20.7-3.5,6.6-3.8,11.1-9.6,13.4-16.2,3.8,2,7.2,5.1,9.5,9.1,6.4,11.2,2.6,25.5-8.6,32h0Z"/>
    <path class="cls-2" d="M42.2,2.6c-1.2-.6-2.4-1-3.8-1.3-1.4-.5-2.7.5-2.9,1.9s-.5,2.7-1,3.9c-1.7,5.3-5.4,9.7-10.4,12.7-5.1,3-10.8,3.8-16.2,2.7-1.3-.3-2.7-.6-3.9-1.1-1.3-.5-2.8.2-3.1,1.7-.3,1.3-.6,2.5-.6,3.9-.7,6,.5,12.3,3.8,18,8.5,14.7,27.8,19.5,42.4,10.2,12.8-8.3,17.3-25.2,10.4-38.8-3.2-6.3-8.5-11-14.6-13.7h0ZM41.7,50.2c-11.2,6.4-25.5,2.6-32-8.6-2.3-4-3.3-8.5-3.1-12.8,6.9,1.3,14.2.4,20.7-3.5,6.6-3.8,11.1-9.6,13.4-16.2,3.8,2,7.2,5.1,9.5,9.1,6.4,11.2,2.6,25.5-8.6,32h0Z"/>
  </g>
  <g>
    <path class="cls-1" d="M69.1,22.3h24c1.7,0,3,1.3,3,3h0c0,1.7-1.3,3-3,3h-24c-1.7,0-3-1.3-3-3h0c0-1.7,1.3-3,3-3Z"/>
    <path class="cls-1" d="M69.1,34.3h24c1.7,0,3,1.3,3,3h0c0,1.7-1.3,3-3,3h-24c-1.7,0-3-1.3-3-3h0c0-1.7,1.3-3,3-3Z"/>
  </g>
</svg>