<?xml version="1.0" encoding="UTF-8"?>
<svg id="Layer_1" data-name="Layer 1" xmlns="http://www.w3.org/2000/svg" version="1.1" viewBox="0 0 102 60">
  <defs>
    <style>
      .cls-1 {
        fill: #e8e8e8;
      }

      .cls-1, .cls-2 {
        stroke-width: 0px;
      }

      .cls-2 {
        fill: #bfbfbf;
      }
    </style>
  </defs>
  <g>
    <path class="cls-1" d="M5.8,47.7c1.3,1.9,2.9,3.5,4.6,5,5.3,4.6,12.1,7.4,19.7,7.3,7.4,0,14.4-2.7,19.6-7.3,1.7-1.4,3.3-3.2,4.6-5,3.6-4.9,5.7-11,5.7-17.6C60.1,13.6,46.6.2,30,.1c-16.5,0-30,13.5-30,30,0,6.6,2.2,12.7,5.8,17.6ZM30.1,53.6c-5.9,0-11.3-2.1-15.4-5.8,4.1-3.7,9.5-5.7,15.4-5.8,5.9,0,11.3,2.1,15.4,5.8-4.1,3.7-9.5,5.7-15.4,5.8ZM30,6.7c12.9,0,23.4,10.5,23.4,23.4,0,4.6-1.4,9-3.7,12.6-5.3-4.6-12.1-7.4-19.7-7.3-7.6,0-14.4,2.8-19.7,7.3-2.3-3.6-3.7-8-3.7-12.6,0-12.9,10.5-23.4,23.4-23.4h0Z"/>
    <path class="cls-2" d="M5.8,47.7c.7,1.1,1.6,2.1,2.6,3,1,1.1,2.6.9,3.5-.2s1.8-2.1,2.8-2.9c4.1-3.7,9.5-5.7,15.4-5.8,5.9,0,11.3,2.1,15.4,5.8,1,.9,2,1.9,2.8,2.9.9,1.1,2.5,1.2,3.5,0,.9-1,1.8-1.9,2.5-3.1,3.6-4.8,5.7-10.9,5.7-17.5,0-17-14.3-30.8-31.6-30C13.2.8.8,13.2,0,28.4c-.4,7.1,1.9,13.8,5.8,19.2h0ZM30,6.7c12.9,0,23.4,10.5,23.4,23.4,0,4.6-1.4,9-3.7,12.6-5.3-4.6-12.1-7.4-19.7-7.3-7.6,0-14.4,2.8-19.7,7.3-2.3-3.6-3.7-8-3.7-12.6,0-12.9,10.5-23.4,23.4-23.4h0Z"/>
  </g>
  <g>
    <path class="cls-1" d="M69.1,22.3h24c1.7,0,3,1.3,3,3h0c0,1.7-1.3,3-3,3h-24c-1.7,0-3-1.3-3-3h0c0-1.7,1.3-3,3-3Z"/>
    <path class="cls-1" d="M69.1,34.3h24c1.7,0,3,1.3,3,3h0c0,1.7-1.3,3-3,3h-24c-1.7,0-3-1.3-3-3h0c0-1.7,1.3-3,3-3Z"/>
  </g>
</svg>