<?xml version="1.0" encoding="UTF-8"?>
<svg id="Layer_1" data-name="Layer 1" xmlns="http://www.w3.org/2000/svg" version="1.1" viewBox="0 0 12 15">
  <path d="M11.35,11.3837c-.54-.27-.46-.54-.28-1.12.05-.17.11-.36.16-.59l.01-.05c.21-.93.36-1.6-.76-2.04-.58-.22-.67-.8-.75-1.35-.06-.44-.13-.85-.44-1.03-.46-.25-1.29.37-1.92.96-.22-.16-.45-.31-.7-.43v-.0099c.39-.29.52-.39.48-.5-.01-.03-.04-.07-.12-.07h-.01c.04-.09.27-.32.42-.47.33-.33.51-.51.45-.64-.01-.04-.05-.08-.15-.08-.05,0-.07-.01-.07-.01-.01-.03.05-.14.07-.2.08-.15.16-.33.08-.46-.04-.09-.15-.14-.31-.16-.07-.01-.11-.03-.13-.06-.05-.1.1-.34.22-.53.14-.25.27-.46.19-.59-.07-.11-.24-.1-.29-.09-.14.01-.24-.01-.29-.05-.06-.05-.07-.16-.07-.29-.01-.21-.02-.5-.4-.61-.71-.2-1.27.05-1.51.69l-.04.1c-.2.54-.28.76-.81.76-.11,0-.21-.01-.29-.02-.15-.01-.25-.02-.32.05-.09.09-.09.26-.05.72.04.48.01.72-.1.82-.09.09-.26.12-.59.08-.52-.05-.85.84-1.04,1.61-1.25.61-1.99,1.65-1.99,2.79,0,.64.24,1.25.69,1.77q-.01.0099,0,.02c.01.01.02.03.04.03.35.43.86.8,1.46,1.06.28.47.62.7.99.68.39-.02.66-.01.77.1.06.07.08.21.04.44-.04.26-.05.39.02.46.07.08.18.07.39.06.09,0,.2-.01.34-.01.63,0,.72.14.95.48l.04.07c.22.31.64.48,1.19.48.17,0,.34-.01.52-.04.4-.07.44-.23.46-.41.0099-.13.0099-.22.42-.19.15,0,.3,0,.34-.1.05-.12-.08-.24-.25-.39-.08-.08-.24-.23-.24-.28,0-.01.02-.04.16-.04.22-.02.34-.06.38-.15.04-.11-.05-.21-.13-.3-.02-.02-.04-.05-.06-.08h.08c.04,0,.15,0,.17-.09.03-.1-.11-.19-.54-.43-.13-.07-.32-.17-.41-.2401.04,0,.09-.02.1-.0699.02-.1-.07-.14-.57-.35-.03-.01-.0699-.03-.11-.05.39-.27.71-.59.94-.95.45.44,1.06,1.01,1.64,1.47.58.46,1.14.81,1.5.81.41,0,.64-.08.67-.25,0-.02.01-.03.01-.05,0-.23-.41-.47-.65-.59Z" fill="#e9e9e9" stroke-width="0"/>
</svg>