<?xml version="1.0" encoding="UTF-8"?>
<svg id="Layer_1" data-name="Layer 1" xmlns="http://www.w3.org/2000/svg" version="1.1" viewBox="0 0 12 15">
  <path d="M11.97,4.085c-.99-.8-2.12-.68-2.91-.43-.86-.69-1.95-1.07-3.06-1.07s-2.2.38-3.06,1.07c-.79-.25-1.92-.3701-2.91.43-.03.02-.04.05-.02.09.01.03.04.05.07.05.02-.0099,1.36-.0699,2.16.11-.75.89-1.16,2-1.16,3.17,0,2.71,2.21,4.91,4.92,4.91s4.92-2.2,4.92-4.91c0-1.17-.41-2.28-1.16-3.17.8-.18,2.14-.11,2.16-.11.03,0,.06-.02.07-.05.02-.04.01-.07-.02-.09Z" fill="#e9e9e9" stroke-width="0"/>
</svg>