<?xml version="1.0" encoding="UTF-8"?>
<svg id="Layer_1" data-name="Layer 1" xmlns="http://www.w3.org/2000/svg" version="1.1" viewBox="0 0 342 115">
  <path d="M336.4877,81.0965c-1.428-1.483-3.4291-2.3336-5.488-2.3336-.3297,0-.6547.0285-.9773.0697.6936-3.7346.6613-7.361-.1186-10.8147-1.4934-6.6162-5.7091-12.551-12.1886-17.1619-3.8494-2.7388-7.621-4.3689-9.2624-4.8181-.8445-.2524-4.9121-1.3725-10.4798-1.3725-13.7836,0-24.956,6.8562-31.4583,19.3057-1.3046,2.4973-2.2421,4.8931-2.8863,7.1821-1.2752-3.7313-3.041-7.1821-5.3751-10.0405-5.2138-6.3837-15.7078-10.1946-28.0719-10.1946-10.1923,0-23.8496,2.9328-28.7978,11.1994-1.0077,1.6846-1.8981,3.7801-2.6558,6.1379-4.319-14.2338-18.865-18.2383-27.6127-18.2383-.6291,0-1.1633.0251-1.5921.0754-7.583.6552-20.8485,5.5027-26.8104,18.773-4.0799-14.7371-18.9281-18.8484-27.801-18.8484-.6291,0-1.1633.0251-1.5921.0754-7.6741.6628-21.1692,5.618-27.0235,19.2535-.1233-.1599-.2396-.3217-.3691-.4792-5.9064-7.1826-13.1403-10.8242-21.5004-10.8242-9.3601,0-18.2497,4.7484-24.6163,9.2952,1.3976-18.1918,2.2829-50.8404-7.879-62.3392C29.138,1.8384,25.5761.168,21.629.168c-.7923,0-1.6083.0678-2.4261.2021C6.8236,2.3991.3687,17.6235.0157,45.6195c-.2325,18.5187,2.1975,36.2797,2.4755,38.24,1.2482,14.9468,10.4608,24.7918,25.1733,27.4704,1.298,1.9773,3.4874,3.3318,6.025,3.4461.8331.0375,1.6737.056,2.5239.056,16.5826,0,35.9263-7.202,47.0399-17.5148,1.0238-.9507,1.7202-2.1211,2.0979-3.3712,1.1433,2.9907,2.8,5.7143,4.9671,8.1034,6.7006,7.3875,16.613,10.0196,23.6551,10.0196h.0009c2.5466,0,4.8191-.3245,6.7537-.965,8.2586-2.734,16.1936-9.1932,20.2655-18.7692,1.1286,3.6302,2.9774,6.9027,5.5283,9.7145,6.7006,7.3875,16.613,10.0196,23.6551,10.0196h.0009c2.5466,0,4.8191-.3245,6.7537-.965,7.6722-2.54,15.0664-8.2927,19.3427-16.7733.5048,4.3565,1.5404,8.288,3.1994,11.2142,2.3863,4.2071,6.0431,6.5241,10.2976,6.5241.6926,0,1.4052-.0626,2.1197-.186.8843-.1532,1.7487-.3814,2.5666-.677,8.176-2.9485,12.7095-12.7346,12.7636-27.5557v-.0546c1.5741.2756,3.2326.4488,4.9168.4488,1.4564,0,2.8474-.1276,4.1672-.3824.9716,4.5026,2.6823,9.5267,4.8931,14.2105,4.3428,9.1965,8.9939,13.8595,13.8263,13.8595,1.4403,0,2.8446-.4251,4.0629-1.2287,4.1302-2.7264,5.877-9.0712,6.6152-13.9136.1746-1.1457.3036-2.3445.4042-3.5685.0294.0536.0584.1086.0882.1613,5.6825,10.0988,17.1026,16.65,24.8601,17.1495.6879.0446,1.3976.0669,2.1083.0669,3.485,0,9.5855-.557,16.0887-3.6852,3.5363,1.6571,9.7847,4.0595,16.2823,4.0595,3.5496,0,6.6712-.7363,9.2767-2.1885,4.0818-2.2758,6.5915-6.1574,7.064-10.929.6452-6.5066-1.2173-12.2327-5.3874-16.5594v.0002Z" fill="#95aeba" stroke-width="0"/>
  <path d="M7.3196,83.3182S-3.4289,9.0027,19.9873,5.164c23.4162-3.8387,13.8194,73.6581,13.8194,73.6581,0,0,28.7904-30.6743,48.3679-6.8693S11.1582,131.5303,7.3195,83.3181h.0001Z" fill="#f4f9fc" stroke-width="0"/>
  <path d="M36.2122,109.9741c-.7757,0-1.5436-.0168-2.3041-.0512-1.5247-.0687-2.705-1.3603-2.6363-2.8849.0689-1.5247,1.3687-2.7062,2.885-2.6362,14.2412.641,32.3107-5.6766,42.0308-14.6967,1.1189-1.0382,2.8671-.9726,3.9054.1459,1.038,1.1187.9727,2.8671-.146,3.9053-10.34,9.5952-28.3828,16.2177-43.7348,16.2177h0Z" fill="#d3e8ef" stroke-width="0"/>
  <path d="M113.8264,54.925s-23.0323,1.8772-25.3356,25.4526c-2.3032,23.5754,21.8807,29.0375,30.7098,26.1145s21.4969-12.8046,19.5775-32.2397c-1.9194-19.4351-23.1041-19.5998-24.9517-19.3274Z" fill="#f4f9fc" stroke-width="0"/>
  <path d="M170.0301,54.925s-23.0323,1.8772-25.3356,25.4526c-2.3032,23.5754,21.8807,29.0375,30.7098,26.1145s21.4969-12.8046,19.5775-32.2397c-1.9194-19.4351-23.1041-19.5998-24.9517-19.3274Z" fill="#f4f9fc" stroke-width="0"/>
  <path d="M334.2898,96.9035c.8476-8.5481-4.5249-12.6909-10.1686-14.6947.1651-.4974.3241-1.0049.476-1.5222,1.2877-4.3867,1.3249-8.2425.5671-11.5987-1.4936-6.6147-6.0759-11.2917-10.267-14.2736-3.6699-2.6118-7.0401-3.9249-7.7731-4.1024,0,0-24.2487-7.5719-36.305,15.5084-12.0565,23.0811,10.3438,38.6072,20.5468,39.2641,5.7447.3703,13.638-1.0078,20.518-5.9587,10.1375,4.9587,21.6035,5.4697,22.4059-2.6221h-.0002Z" fill="#f4f9fc" stroke-width="0"/>
  <path d="M325.534,105.9153c-4.9298,0-10.4512-1.7488-14.8641-3.9073-1.3711-.6706-1.9388-2.3256-1.2681-3.6966.6707-1.371,2.3259-1.9385,3.6963-1.268,6.6135,3.2347,13.4625,4.2508,16.6557,2.4707,1.0981-.6121,1.6491-1.5013,1.786-2.8832.3449-3.4793-.4828-6.2038-2.5308-8.3294-1.0591-1.099-1.0264-2.8484.0724-3.9073,1.0991-1.0588,2.848-1.0267,3.9073.0726,3.1954,3.3163,4.5584,7.5923,4.0508,12.7094-.316,3.1881-1.905,5.6659-4.5947,7.1652-1.9913,1.1101-4.3729,1.5739-6.9108,1.5739Z" fill="#d3e8ef" stroke-width="0"/>
  <path d="M254.4898,64.1856c-9.9136-12.1388-42.4727-10.3764-48.9378.4268-6.4643,10.8034-7.99,44.8222,5.5083,42.4841.6146-.1066,1.1972-.2612,1.7478-.4605,8.3221-3.0002,9.5287-15.9904,9.554-23.0035.0084-2.315-.1115-3.9786-.1468-4.4162-.0061-.0761-.0214-.1498-.0441-.2227l-.6367-2.0464c4.3228,1.6896,12.8306,4.1001,18.7389-.0919.3344,11.3655,10.4555,33.3444,16.1362,29.5938,6.0664-4.0044,7.9936-30.1241-1.9198-42.2636h0Z" fill="#f4f9fc" stroke-width="0"/>
</svg>