<?xml version="1.0" encoding="UTF-8"?>
<svg id="Layer_1" data-name="Layer 1" xmlns="http://www.w3.org/2000/svg" version="1.1" viewBox="0 0 342 168">
  <path d="M336.4876,81.3649c-1.428-1.483-3.4291-2.3336-5.488-2.3336-.3297,0-.6547.0285-.9773.0697.6936-3.7346.6613-7.361-.1186-10.8147-1.4934-6.6162-5.7091-12.551-12.1886-17.1619-3.8494-2.7388-7.621-4.3689-9.2624-4.8181-.8445-.2524-4.9121-1.3725-10.4798-1.3725-13.7836,0-24.956,6.8562-31.4583,19.3057-1.3046,2.4973-2.2421,4.8931-2.8863,7.1821-1.2752-3.7313-3.041-7.1821-5.3751-10.0405-5.2138-6.3837-15.7078-10.1946-28.0719-10.1946-10.1923,0-23.8496,2.9328-28.7978,11.1994-1.0077,1.6846-1.8981,3.7801-2.6558,6.1379-4.319-14.2338-18.865-18.2383-27.6127-18.2383-.6291,0-1.1633.0251-1.5921.0754-7.583.6552-20.8485,5.5027-26.8104,18.773-4.0799-14.7371-18.9281-18.8484-27.801-18.8484-.6291,0-1.1633.0251-1.5921.0754-7.6741.6628-21.1692,5.618-27.0235,19.2535-.1233-.1599-.2396-.3217-.3691-.4792-5.9064-7.1826-13.1403-10.8242-21.5004-10.8242-9.3601,0-18.2497,4.7484-24.6163,9.2952,1.3976-18.1918,2.2829-50.8404-7.879-62.3392C29.1379,2.1068,25.576.4364,21.6289.4364c-.7923,0-1.6083.0678-2.4261.2021C6.8235,2.6675.3686,17.8919.0156,45.8879c-.2325,18.5187,2.1975,36.2797,2.4755,38.24,1.2482,14.9468,10.4608,24.7918,25.1733,27.4704,1.298,1.9773,3.4874,3.3318,6.025,3.4461.8331.0375,1.6737.056,2.5239.056,16.5826,0,35.9263-7.202,47.0399-17.5148,1.0238-.9507,1.7202-2.1211,2.0979-3.3712,1.1433,2.9907,2.8,5.7143,4.9671,8.1034,6.7006,7.3875,16.613,10.0196,23.6551,10.0196h.0009c2.5466,0,4.8191-.3245,6.7537-.965,8.2586-2.734,16.1936-9.1932,20.2655-18.7692,1.1286,3.6302,2.9774,6.9027,5.5283,9.7145,6.7006,7.3875,16.613,10.0196,23.6551,10.0196h.0009c2.5466,0,4.8191-.3245,6.7537-.965,7.6722-2.54,15.0664-8.2927,19.3427-16.7733.5048,4.3565,1.5404,8.288,3.1994,11.2142,2.3863,4.2071,6.0431,6.5241,10.2976,6.5241.6926,0,1.4052-.0626,2.1197-.186.8843-.1532,1.7487-.3814,2.5666-.677,8.176-2.9485,12.7095-12.7346,12.7636-27.5557v-.0546c1.5741.2756,3.2326.4488,4.9168.4488,1.4564,0,2.8474-.1276,4.1672-.3824.9716,4.5026,2.6823,9.5267,4.8931,14.2105,4.3428,9.1965,8.9939,13.8595,13.8263,13.8595,1.4403,0,2.8446-.4251,4.0629-1.2287,4.1302-2.7264,5.877-9.0712,6.6152-13.9136.1746-1.1457.3036-2.3445.4042-3.5685.0294.0536.0584.1086.0882.1613,5.6825,10.0988,17.1026,16.65,24.8601,17.1495.6879.0446,1.3976.0669,2.1083.0669,3.485,0,9.5855-.557,16.0887-3.6852,3.5363,1.6571,9.7847,4.0595,16.2823,4.0595,3.5496,0,6.6712-.7363,9.2767-2.1885,4.0818-2.2758,6.5915-6.1574,7.064-10.929.6452-6.5066-1.2173-12.2327-5.3874-16.5594Z" fill="#95aeba" stroke-width="0"/>
  <path d="M7.3195,83.5866S-3.429,9.2711,19.9872,5.4324c23.4162-3.8387,13.8194,73.6581,13.8194,73.6581,0,0,28.7904-30.6743,48.3679-6.8693,19.5775,23.805-71.0164,59.5775-74.8551,11.3653Z" fill="#f4f9fc" stroke-width="0"/>
  <path d="M36.2121,110.2425c-.7757,0-1.5436-.0168-2.3041-.0512-1.5247-.0687-2.705-1.3603-2.6363-2.8849.0689-1.5247,1.3687-2.7062,2.885-2.6362,14.2412.641,32.3107-5.6766,42.0308-14.6967,1.1189-1.0382,2.8671-.9726,3.9054.1459,1.038,1.1187.9727,2.8671-.146,3.9053-10.34,9.5952-28.3828,16.2177-43.7348,16.2177Z" fill="#d3e8ef" stroke-width="0"/>
  <path d="M113.8263,55.1934s-23.0323,1.8772-25.3356,25.4526c-2.3032,23.5754,21.8807,29.0375,30.7098,26.1145,8.8291-2.923,21.4969-12.8046,19.5775-32.2397-1.9194-19.4351-23.1041-19.5998-24.9517-19.3274Z" fill="#f4f9fc" stroke-width="0"/>
  <path d="M170.03,55.1934s-23.0323,1.8772-25.3356,25.4526c-2.3032,23.5754,21.8807,29.0375,30.7098,26.1145,8.8291-2.923,21.4969-12.8046,19.5775-32.2397-1.9194-19.4351-23.1041-19.5998-24.9517-19.3274Z" fill="#f4f9fc" stroke-width="0"/>
  <path d="M334.2897,97.1719c.8476-8.5481-4.5249-12.6909-10.1686-14.6947.1651-.4974.3241-1.0049.476-1.5222,1.2877-4.3867,1.3249-8.2425.5671-11.5987-1.4936-6.6147-6.0759-11.2917-10.267-14.2736-3.6699-2.6118-7.0401-3.9249-7.7731-4.1024,0,0-24.2487-7.5719-36.305,15.5084-12.0565,23.0811,10.3438,38.6072,20.5468,39.2641,5.7447.3703,13.638-1.0078,20.518-5.9587,10.1375,4.9587,21.6035,5.4697,22.4059-2.6221Z" fill="#f4f9fc" stroke-width="0"/>
  <path d="M325.5339,106.1837c-4.9298,0-10.4512-1.7488-14.8641-3.9073-1.3711-.6706-1.9388-2.3256-1.2681-3.6966.6707-1.371,2.3259-1.9385,3.6963-1.268,6.6135,3.2347,13.4625,4.2508,16.6557,2.4707,1.0981-.6121,1.6491-1.5013,1.786-2.8832.3449-3.4793-.4828-6.2038-2.5308-8.3294-1.0591-1.099-1.0264-2.8484.0724-3.9073,1.0991-1.0588,2.848-1.0267,3.9073.0726,3.1954,3.3163,4.5584,7.5923,4.0508,12.7094-.316,3.1881-1.905,5.6659-4.5947,7.1652-1.9913,1.1101-4.3729,1.5739-6.9108,1.5739Z" fill="#d3e8ef" stroke-width="0"/>
  <path d="M254.4897,64.454c-9.9136-12.1388-42.4727-10.3764-48.9378.4268-6.4643,10.8034-7.99,44.8222,5.5083,42.4841.6146-.1066,1.1972-.2612,1.7478-.4605,8.3221-3.0002,9.5287-15.9904,9.554-23.0035.0084-2.315-.1115-3.9786-.1468-4.4162-.0061-.0761-.0214-.1498-.0441-.2227l-.6367-2.0464c4.3228,1.6896,12.8306,4.1001,18.7389-.0919.3344,11.3655,10.4555,33.3444,16.1362,29.5938,6.0664-4.0044,7.9936-30.1241-1.9198-42.2636Z" fill="#f4f9fc" stroke-width="0"/>
  <path d="M273.5195,138.828c-.26-2.03-1.5741-3.7056-3.5201-4.4851-.8739-.3487-1.8208-.5256-2.8142-.5256-.5342,0-1.0703.0489-1.5931.1456-.5845.1086-1.1395.2742-1.6424.4901-.7524.3226-1.4137.7657-1.9707,1.3241-1.019,1.0247-1.5798,2.3735-1.5798,3.7977,0,.0655.0009.1305.0038.1959.0009.0313.0014.0617.0028.0925-.6585-.2097-1.3597-.3601-2.1111-.4341-.1993-2.0267-1.4147-3.7706-3.2592-4.672-1.001-.4872-2.0836-.7344-3.2194-.7344-1.1898,0-2.3275.2614-3.3788.7757-1.2847.6276-2.243,1.632-2.7838,2.8085-.231-.0209-.4635-.0375-.6993-.0375-.6053,0-1.2069.0678-1.7847.2012-.5636.13-1.0987.3202-1.5921.565-.6832-.1504-1.3929-.2263-2.1235-.2263-1.2989,0-2.5353.2457-3.6905.7287-.2638-2.1054-1.669-3.8247-3.7787-4.6056-.9336-.3435-1.9223-.5181-2.9395-.5181-1.0285,0-2.0001.1689-2.8854.501-2.2629.8473-3.6691,2.8024-3.6691,5.1023,0,.1343-.0047.2728-.0057.4075-.5266-.1385-1.0798-.2386-1.6614-.296-.2002-2.0262-1.4166-3.7716-3.2602-4.672-1.001-.4872-2.0836-.7344-3.2194-.7344-1.187,0-2.3237.2609-3.3835.778-2.1292,1.0428-3.3816,3.1121-3.2715,5.3063.0171.5432.0285,1.0911.038,1.6343.0076.5503.0114,1.0954.0114,1.6372,0,1.2245-.0218,2.4617-.0555,3.7009-.046-.6262-.0825-1.2515-.1561-1.8768-.0047-.0399-.0095-.0797-.0152-.1196-.0152-.1048-.0332-.2092-.0541-.3122.1679-.5152.2562-1.0608.2562-1.6239,0-.713-.0256-1.4398-.0759-2.1676-.0512-.732-.1271-1.4688-.2144-2.0997-.2495-2.1263-1.6642-3.8636-3.7839-4.6459-.9327-.3449-1.9233-.5195-2.9423-.5195-1.0285,0-2.0001.1689-2.8892.5024-2.261.8487-3.6653,2.8033-3.6653,5.1009,0,.1343-.0047.2728-.0057.4075-.5266-.1385-1.0798-.2386-1.6614-.296-.1993-2.0267-1.4147-3.7706-3.264-4.6739-1.001-.4863-2.0817-.7325-3.2146-.7325-1.1898,0-2.3275.2614-3.3788.7757-2.133,1.0418-3.3873,3.1126-3.2772,5.3087.0171.5404.0294,1.0859.038,1.6343.0076.5503.0123,1.0954.0123,1.6372,0,1.3886-.0304,2.8024-.074,4.2199-.0218-.4464-.0351-.8909-.0626-1.3378-.13-2.0732-.3378-4.0036-.6177-5.738-.0104-.0631-.0218-.1262-.0351-.1893-.3643-1.8023-1.5134-3.3067-3.1539-4.1274-.9877-.4934-2.0646-.7439-3.2013-.7439-1.2183,0-2.3806.278-3.4547.8264-1.2477.6371-2.187,1.6315-2.7174,2.7919-.2457.0138-.4886.028-.7306.0436-.2628.019-.52.056-.7714.1101-.1271-.1898-.2676-.3734-.4203-.5503-.5503-.6314-1.2344-1.1452-2.0295-1.5252-.5503-.2633-1.149-.463-1.7809-.5935-.5702-.1181-1.1566-.1779-1.742-.1779-1.1139,0-2.1652.2296-3.1311.6851-1.4498.6851-2.5191,1.8958-3.032,3.384.037-.4573.0636-.9208.0726-1.3957,0-2.2667-1.3198-4.2593-3.448-5.2015-.9887-.4369-2.0599-.659-3.1833-.659-.575,0-1.1547.0579-1.724.1717-.6243.1248-1.2183.315-1.7648.5655-.8274.3795-1.5409.9057-2.114,1.5556-.8701.9825-1.3673,2.2221-1.4119,3.5092-.0213.3852-.0821.7434-.1608,1.0893-.4104-1.6728-1.4982-3.0723-3.0301-3.8603-.9915-.5105-2.0808-.769-3.2364-.769-.6035,0-1.2069.0712-1.7876.2111-.6699.1604-1.298.4089-1.8644.7368-.204.1181-.4004.2462-.5873.3838-.3463-.1997-.705-.3829-1.0769-.5494-1.4299-.6386-2.9954-.9621-4.6559-.9621-1.6661,0-3.2336.3264-4.6587.9697-.6609.2984-1.2771.659-1.854,1.0679-.5147-1.5153-1.6201-2.7449-3.1197-3.4347-.9564-.4374-1.9954-.659-3.0884-.659-.538,0-1.0769.0527-1.6121.1589-.574.1153-1.1225.2979-1.6339.5432-.1993-.0394-.4023-.0693-.6072-.0887-.9612-.0925-1.9432-.1632-2.9205-.2097-.9782-.0465-1.9679-.0697-2.9414-.0697-.6101,0-1.2192.0147-1.8293.0441-.5598.027-1.1111.0588-1.7392.1015-1.2268.1034-2.3597.4915-3.3702,1.1566-.4393.2889-.8297.6319-1.177,1.0124-.7666-.2733-1.5774-.4127-2.4219-.4127-1.2183,0-2.3806.278-3.4547.8264-.667.3411-1.2468.7837-1.7221,1.2999-.0617-.0332-.1243-.0664-.1869-.0992-1.502-.7823-3.1558-1.1789-4.9168-1.1789-1.7677,0-3.4243.3999-4.9244,1.1898-1.4223.7496-2.6425,1.7828-3.6245,3.069-.8957,1.1704-1.5912,2.5229-2.0684,4.0206-.4592,1.4422-.6917,2.9803-.6917,4.5714,0,4.0197,1.576,6.5289,2.8958,7.9246,1.9944,2.1092,4.8248,3.1786,8.4132,3.1786,1.4394,0,2.7734-.1803,3.9746-.5356.2581.5062.5978.9768,1.0133,1.3933.5551.5536,1.224,1.0043,1.9935,1.3426.6035.2642,1.2648.4526,1.9726.5598.5219.0788,1.0541.1186,1.5836.1186,1.0447,0,2.0352-.1675,2.9461-.4986.8378-.305,1.5599-.7671,2.1491-1.3421.1964.7548.5024,1.4678.9393,2.1216.9194,1.3772,2.3085,2.3123,3.912,2.632.0759.0152.1528.0285.2296.0403.8198.1229,1.6566.2111,2.4926.2628.7942.0489,1.5988.0735,2.392.0735,2.7535,0,5.507-.2975,8.1836-.8834.0503-.0109.0996-.0228.149-.0351,1.5452-.39,2.8099-1.4465,3.5002-2.9044.4146.0342.8435.0626,1.2932.0797.7268.028,1.4991.0422,2.3199.0422.8217,0,1.6633-.0185,2.5239-.056.8464-.0365,1.6794-.0873,2.4954-.1518.8625-.0678,1.7126-.1618,2.5258-.279.2401-.0346.4754-.0716.7069-.1105.2097.1196.4289.2296.6566.3302.5968.2614,1.2458.4483,1.9365.5565.5209.0807,1.057.1219,1.594.1219.9944,0,1.9323-.1575,2.8019-.4588.4573.1774.9393.3041,1.4451.3577.7752.0773,1.6396.1357,2.5723.1741.9004.0365,1.8587.0555,2.8702.0555.9792,0,1.9897-.0185,3.0362-.0546,1.0447-.0365,2.0732-.0911,3.0827-.1637,1.0228-.074,2.0125-.166,2.9708-.2766.9934-.1148,1.929-.2514,2.8607-.4218,1.6405-.3273,3.0353-1.317,3.8959-2.7245.2889.0427.5778.0873.8701.1181.8084.0863,1.6348.1305,2.4565.1305,1.4213,0,2.8607-.1096,4.2773-.3254.0076-.0009.0142-.0019.0218-.0033.2666.574.6357,1.1063,1.0997,1.5722.5551.5532,1.224,1.0039,1.9935,1.3421.6035.2642,1.2648.4526,1.9726.5598.5219.0788,1.0541.1186,1.5836.1186,1.0447,0,2.0352-.1675,2.9461-.4986,1.8763-.6827,3.1956-2.1315,3.6473-3.9509.2685.7391.6974,1.4194,1.2695,1.9887.5997.6025,1.3284,1.0807,2.1652,1.4209.5389.2197,1.1215.3871,1.7354.4991.5674.1029,1.149.1551,1.7297.1551,1.0333,0,2.02-.1755,2.9357-.5233.3492-.1328.6784-.2927.9858-.4768.3425.213.7126.3966,1.1101.546.9336.3525,1.9299.5313,2.9613.5313.9773,0,1.9233-.1694,2.8104-.5024.1779-.0669.3439-.1494.5119-.2301.1732.0655.3378.1423.5195.1959.4981.1485,1.0399.2571,1.6073.3235.4782.056.9621.0844,1.4384.0844.8663,0,1.6908-.1034,2.4499-.3065,2.0618-.5517,3.5624-2.0694,4.0263-4.004.2557.8535.714,1.6429,1.3611,2.2867.5997.6025,1.3284,1.0807,2.1652,1.4209.5389.2197,1.1215.3871,1.7354.4991.5674.1029,1.149.1551,1.7288.1551,1.0361,0,2.0238-.176,2.9357-.5233.3492-.1328.6794-.2927.9868-.4768.3416.213.7126.3966,1.1101.546.9336.3525,1.9299.5313,2.9603.5313.9773,0,1.9242-.1694,2.8114-.5024.1779-.0669.3439-.1494.5114-.2301.1746.0659.3383.1423.5247.1974.4972.1475,1.0352.2557,1.6016.3221.4782.056.9621.0844,1.4384.0844.5949,0,1.1599-.0664,1.7088-.1632.065.2899.139.5755.2334.8525.7325,2.1548,2.4499,3.6027,4.5866,3.8717.7638.0977,1.4859.1708,2.1738.2197.7154.0508,1.41.0769,2.0665.0769,1.3957,0,2.6985-.1267,3.8731-.3757,1.4536-.3084,2.7563-.844,3.8731-1.5931,1.1424-.7676,2.0561-1.762,2.7487-2.9385.4388.0607.8824.101,1.3274.101,1.0333,0,2.02-.1755,2.9357-.5233.3492-.1328.6794-.2927.9868-.4773.3416.2135.7126.3966,1.1092.5465.9336.3525,1.9299.5313,2.9613.5313.5252,0,1.0409-.0531,1.5456-.1509.1376.1513.2827.297.4393.4346.6091.5385,1.335.9612,2.1671,1.2591.5494.1959,1.149.3397,1.7885.4289.5285.0731,1.0541.1101,1.5637.1101.9279,0,1.8018-.1243,2.5988-.3696,2.2592-.6955,3.7697-2.5191,3.9433-4.7863.0209-.2918.0361-.5617.0465-.8112.0114-.2728.0171-.5456.0171-.8184,0-.4588-.0171-.9237-.0522-1.3948-.0266-.3677-.0987-1.2396-.1025-1.2733-.0294-.2742-.0778-.5446-.1461-.8084.1585-.4488.2552-.9227.2856-1.4137.075-.9531.1271-1.9.1547-2.8147.0266-.8966.0408-1.8066.0408-2.7298,0-1.4726-.0465-2.9622-.1385-4.4291-.092-1.4626-.242-2.9674-.4412-4.4391Z" fill="#95aeba" stroke-width="0"/>
  <path d="M79.2093,141.1683c.9766,0,1.8672.21,2.6728.6296.8052.42,1.4948.9855,2.0688,1.6963.5741.7112,1.0193,1.538,1.3365,2.4801.317.9424.4754,1.9275.4754,2.9556,0,.9939-.1286,1.889-.3854,2.6857-.2571.7968-.6513,1.4778-1.1822,2.0433-.5314.5654-1.2124.9982-2.0433,1.2979-.8312.2999-1.812.4497-2.9427.4497-2.2104,0-3.8384-.5526-4.8832-1.6577-1.0453-1.1052-1.5679-2.6343-1.5679-4.5876,0-1.0964.1543-2.1288.4627-3.097.3084-.9678.7409-1.8159,1.298-2.5444.5564-.728,1.2335-1.3019,2.0303-1.7219.7968-.4196,1.6834-.6296,2.6601-.6296ZM79.2863,144.5608c-.514,0-.947.1373-1.2978.4112-.3516.2743-.6386.6257-.8611,1.0538-.2228.4285-.3815.9168-.4754,1.465-.0945.5485-.1413,1.0883-.1413,1.6192,0,.9766.2654,1.7135.7966,2.2103.5309.4972,1.1651.7453,1.902.7453.3766,0,.7365-.0683,1.0794-.2056.3425-.137.6509-.3382.9251-.604.274-.2654.4924-.5952.6555-.9895.1627-.3939.2441-.8393.2441-1.3364,0-.5996-.0604-1.1649-.1798-1.6963-.1202-.5309-.3-.9934-.5397-1.3878-.2402-.394-.5358-.7068-.8869-.9381-.3513-.2312-.7581-.3469-1.2207-.3469ZM87.4593,157.2313c.1369-1.1649.2311-2.4929.2826-3.9836.0513-1.4906.077-3.0327.077-4.6261,0-1.2506-.0128-2.4886-.0385-3.7139-.0258-1.2248-.0557-2.3857-.09-3.4824-.0172-.3426.1671-.6125.5527-.8096.3854-.1968.8007-.2956,1.2465-.2956.3766,0,.7195.0772,1.0279.2313s.4968.4028.5655.7453c.2571,1.5935.4453,3.3499.5655,5.2688.1197,1.9191.1798,3.8125.1798,5.6799,0,.9424-.0128,1.8504-.0385,2.7242s-.0731,1.6878-.1413,2.4416c-.0346.3084-.2402.5309-.617.6683-.3771.1369-.8054.2056-1.285.2056-.2914,0-.5782-.0217-.8609-.0643-.2829-.0429-.5314-.1116-.7453-.2056-.2144-.0943-.3857-.2056-.5142-.3341-.1283-.1284-.1842-.2783-.1668-.4498Z" fill="#f4f9fc" stroke-width="0"/>
  <path d="M98.6134,146.3085c.0341.257.1798.4368.4369.5397.2569.1028.5309.163.8223.1798.6168.0514,1.2678.0772,1.9533.0772.7711,0,1.5377-.0213,2.3002-.0643.7622-.0426,1.5036-.1068,2.2231-.1927.1197-.0169.2353.0172.3469.1028.1114.0859.2098.1971.2956.334.0856.1374.1499.2956.1928.4756.0424.1798.0643.3557.0643.5268,0,.2402-.0429.4542-.1286.6425-.0859.1888-.2313.3084-.4369.3598-1.0625.2571-2.1419.4586-3.2383.604-1.0966.1458-2.1846.2185-3.2641.2185-.6513,0-1.2978-.0256-1.9403-.077s-1.2723-.1455-1.889-.2827c-.4458-.0856-.7968-.2739-1.0539-.5655-.2569-.2911-.42-.6168-.4882-.9766-.0515-.2911-.09-.6466-.1158-1.0666-.0255-.4196-.0385-.8694-.0385-1.3493,0-.5309.013-1.0794.0385-1.6449.0258-.5654.0599-1.1135.1028-1.6448.0427-.5309.094-1.028.1543-1.4907.0599-.4626.1241-.8566.1928-1.1822.0854-.3939.2912-.698.6168-.9124.3253-.214.694-.3381,1.1052-.3727.514-.0341,1.0365-.0643,1.5676-.0899.5309-.0258,1.0623-.0386,1.5936-.0386.908,0,1.8117.0217,2.7113.0643.8996.0431,1.7946.1072,2.6858.1928.3596.0345.6251.1887.7966.4626.1712.2743.2571.5743.2571.8995,0,.343-.0945.6554-.2826.9381-.1889.2827-.4627.424-.8226.424-.343,0-.7799.0044-1.3108.0129-.5311.0088-1.0794.0173-1.6449.0258-.5652.0088-1.1094.0256-1.6319.0514-.5228.0256-.9639.0642-1.3235.1157-.2571.0345-.4413.1244-.5527.2699-.1116.1457-.1842.3384-.2183.5782-.1028.8569-.1543,1.6536-.1543,2.3902,0,.4972.0258.9855.0773,1.465ZM111.6179,155.9977c.0343.6342-.077,1.0755-.3341,1.3237-.2569.2485-.6168.3727-1.0794.3727h-1.7475c-.5485,0-1.0839.0044-1.6064.0129-.5228.0088-1.0498.0216-1.5806.0385-.5314.0173-1.1052.0345-1.7219.0514-.0687,0-.1244.0554-.1671.1671-.0429.1113-.0643.2313-.0643.3598,0,.1286.0169.2481.0515.3599.0341.1111.0854.1671.1541.1671.3427,0,.6722.0039.9896.0128.3167.0085.6464.0129.9894.0129,1.0279,0,2.0517-.0173,3.0712-.0514,1.0193-.0346,2.06-.086,3.1228-.1542.2056-.0173.3682.1157.4882.3983.1197.2827.1798.5784.1798.8867,0,.2225-.0343.4112-.1028.5655-.0684.1542-.1715.2481-.3084.2826-2.3475.5141-4.7289.7711-7.1449.7711-.7026,0-1.4006-.0217-2.0946-.0643-.6938-.0429-1.3839-.1157-2.0688-.2185-.343-.0686-.6168-.257-.8226-.5654-.2056-.3084-.3255-.6598-.3596-1.0538-.0174-.2401-.0302-.4799-.0385-.7195-.0088-.2402-.013-.48-.013-.7197,0-.2402.0042-.4839.013-.7325.0083-.2481.0211-.518.0385-.8096.0341-.3939.171-.6978.4112-.9124.2397-.214.5655-.3381.9766-.3727.7711-.0341,1.4992-.0554,2.1846-.0643.685-.0083,1.379-.0128,2.0818-.0128.3937,0,.8052.0044,1.2335.0128.4281.0088.865.0129,1.3108.0129.0515,0,.09-.0514.1155-.1542.0258-.1028.0388-.2185.0388-.347,0-.1284-.0218-.2481-.0643-.3598-.0429-.1113-.1072-.1671-.1928-.1671-.737-.0514-1.4307-.0899-2.0818-.1157-.6513-.0256-1.3022-.0385-1.9533-.0385-.514,0-1.0367.0088-1.5676.0258-.5314.0172-1.0969.0429-1.6964.077-.2228.0346-.3898-.0984-.501-.3984-.1116-.2995-.1671-.6208-.1671-.9638,0-.3252.0469-.6208.1413-.8866.094-.2654.2441-.4069.4497-.424,1.5934-.1543,3.187-.2313,4.7804-.2313.8393,0,1.6834.0173,2.5315.0514.8481.0345,1.7175.077,2.6086.1286.4455.0345.7495.1714.9124.4112.1627.2402.2784.5742.3471,1.0023.0682.4627.1197.9213.1541,1.3751.0341.4542.0684,1.0067.1028,1.6577ZM107.9942,149.5468c.0682-.651.1197-1.3449.1541-2.0818.0343-.7365.0515-1.5075.0515-2.3131,0-.9766-.0216-1.9701-.0643-2.9813-.0429-1.0107-.09-2.0303-.1413-3.0584-.0172-.1543.0213-.2956.1155-.4242.094-.1284.2269-.2397.3984-.334.171-.094.3638-.1627.5782-.2057.2142-.0426.4325-.0642.6555-.0642.394,0,.7492.073,1.0664.2185.317.1457.5098.3815.5785.7068.1028.5827.1968,1.1738.2826,1.7733.0856.5999.1627,1.2079.2313,1.8247.394-.0169.7922-.0213,1.195-.0129.4023.0088.7838.0217,1.1437.0385.3084.0173.5397.1844.694.5012.1541.3173.2313.6727.2313,1.0666,0,.2229-.0258.4458-.0773.6683-.0513.2229-.1286.424-.2313.604s-.2311.3257-.3854.4369c-.1543.1116-.3341.1671-.5397.1671h-.9251c-.2917,0-.5912.0088-.8996.0256.0169.2402.0258.4671.0258.6811v.6554c0,.8223-.0258,1.5934-.0773,2.3131-.0172.3084-.2313.5397-.6425.6939s-.8653.2313-1.3621.2313c-.5314,0-1.0152-.09-1.4521-.2699-.4369-.1799-.6386-.4667-.604-.861Z" fill="#f4f9fc" stroke-width="0"/>
  <path d="M116.2437,153.916c1.285.1373,2.6382.2358,4.0606.2955,1.4222.0602,2.8529.09,4.2922.09.7877,0,1.5588-.0085,2.3129-.0258.7539-.0168,1.4906-.0514,2.2104-.1028.2397-.0168.4195.1201.5397.4112.1197.2916.1798.6084.1798.951,0,.343-.0643.6681-.1928.9766-.1283.3084-.33.4972-.6037.5654-.5829.1374-1.2298.2571-1.9405.3599-.7112.1028-1.4482.1842-2.2104.2441-.7625.0602-1.538.1072-2.3259.1414-.7882.0341-1.5593.0514-2.3129.0514-.7541,0-1.4651-.0129-2.1331-.0386-.6683-.0256-1.2767-.0726-1.825-.1413-.2914-.0341-.5054-.2526-.6425-.6554-.1371-.4023-.2056-.8437-.2056-1.3235,0-.4795.0684-.9037.2056-1.2723.1371-.3682.3341-.5438.5912-.5268ZM122.4633,140.1403c.9766,0,1.8674.1798,2.6731.5397.8052.3598,1.4906.844,2.0561,1.4521.5652.6084,1.0063,1.3152,1.3235,2.1204.3167.8055.4754,1.6536.4754,2.5443,0,1.7136-.5184,3.0629-1.5549,4.048-1.037.9855-2.6947,1.4777-4.9733,1.4777-2.2101,0-3.8381-.471-4.883-1.4136-1.0453-.9421-1.5679-2.2528-1.5679-3.9322,0-.9252.1543-1.803.4627-2.6343.3084-.8309.7409-1.5589,1.2978-2.1846.5566-.6252,1.2337-1.118,2.0303-1.4777.7968-.3599,1.6834-.5397,2.6601-.5397ZM122.5405,143.507c-.4973,0-.9212.0989-1.2723.2956-.3513.1971-.6342.4586-.8481.7838-.2144.3257-.3687.6856-.4627,1.0794-.0945.3944-.1413.7884-.1413,1.1824,0,.6681.2524,1.1911.7581,1.5678.5054.3771,1.1349.5654,1.889.5654.3768,0,.7365-.0514,1.0794-.1542.3427-.1028.6467-.2481.9124-.4369.2654-.1883.4757-.4196.6298-.6939.1543-.2739.2313-.5911.2313-.951,0-.4453-.0604-.8649-.1798-1.2593-.1202-.394-.2956-.7365-.527-1.028-.2313-.2912-.5184-.5225-.8611-.6939-.3427-.1711-.7453-.2571-1.2077-.2571ZM130.4307,157.2313c.1369-1.1649.2313-2.4929.2826-3.9836.0515-1.4906.077-3.0327.077-4.6261,0-1.2506-.0128-2.4886-.0385-3.7139-.0258-1.2248-.0557-2.3857-.0898-3.4824,0-.1711.0513-.3253.1541-.4627.1028-.1369.2353-.2526.3984-.3469.1627-.094.3511-.1671.5655-.2185.2139-.0514.4325-.0772.6553-.0772.3768,0,.7151.0772,1.0152.2313.2995.1542.484.4028.5527.7453.2569,1.5935.4453,3.3499.5652,5.2688.1197,1.9191.1801,3.8125.1801,5.6799,0,.9424-.013,1.8504-.0385,2.7242-.0258.8739-.0731,1.6878-.1416,2.4416-.0343.3084-.2355.5309-.604.6683-.3685.1369-.7926.2056-1.272.2056-.2917,0-.5743-.0217-.8481-.0643-.2743-.0429-.5186-.1116-.7325-.2056-.2144-.0943-.3857-.2056-.514-.3341-.1286-.1284-.1845-.2783-.1671-.4498Z" fill="#f4f9fc" stroke-width="0"/>
  <path d="M137.3698,154.4299c.9766.086,1.983.1586,3.0197.2185,1.0365.0602,2.0858.1072,3.1485.1414.0167-.6683.0341-1.3321.0513-1.9919.0169-.6593.0515-1.3661.1028-2.1202.0341-.2912.2443-.5141.6298-.6683s.8179-.2313,1.2978-.2313c.4627,0,.8869.0772,1.2723.2313.3857.1542.5868.3944.604.7197.0341.6513.0726,1.3324.1158,2.0432.0424.7112.0984,1.4007.1671,2.069,1.953,0,3.8462-.0514,5.6798-.1542.3084-.0169.5397.1155.694.3983.1541.2827.2311.5955.2311.9381,0,.343-.0814.6726-.2441.9895-.1629.3172-.4156.5099-.7581.5782-.7541.1373-1.5767.257-2.4672.3598-.8913.1028-1.812.1884-2.7629.257-.9511.0683-1.9192.1197-2.9044.1543-.9855.0341-1.9403.0514-2.8657.0514-.9423,0-1.8336-.0173-2.6728-.0514-.8398-.0346-1.6022-.086-2.2874-.1543-.3255-.0345-.5613-.257-.7068-.6681-.1457-.4113-.2183-.8566-.2183-1.3365,0-.4794.0726-.9035.2183-1.2721.1455-.3682.3638-.5353.6555-.5012ZM139.9913,151.8855c-.1543.1201-.3729.1542-.6555.1028s-.5743-.1625-.8739-.334c-.3-.1711-.5954-.3727-.8866-.604-.2917-.2313-.5228-.4754-.694-.7325-.1715-.257-.2657-.4967-.2826-.7195-.0172-.2225.094-.4025.3341-.5397,2.1415-1.2506,3.782-2.6814,4.9217-4.2921,1.1393-1.6103,1.7605-3.4697,1.8633-5.5771,0-.171.0643-.3297.1928-.4754.1286-.1454.2956-.2654.5012-.3598.2056-.094.4369-.1671.6938-.2185.2571-.0514.514-.0772.7711-.0772.4453,0,.8523.0816,1.2207.2442.3682.163.5527.4156.5527.7582-.0346,1.8163-.3516,3.4695-.9509,4.9603,1.3878.6513,2.6728,1.3666,3.8551,2.146,1.1822.7799,2.2445,1.6151,3.1868,2.5059.2225.2229.3341.4883.3341.7967,0,.3257-.1028.6598-.3084,1.0023-.2056.343-.4541.6342-.7453.8739-.2914.2402-.5912.3944-.8996.4627-.3084.0687-.5652-.0085-.7711-.2313-.8223-.8907-1.7475-1.7389-2.7756-2.5444-1.0279-.8052-2.1505-1.5762-3.3669-2.3131-.6513.9252-1.4136,1.8119-2.2874,2.6601-.8736.8481-1.8503,1.6834-2.9297,2.5058Z" fill="#f4f9fc" stroke-width="0"/>
  <path d="M160.1923,150.7291c.0169.3084.1413.5184.3727.6296.2313.1116.4924.1844.7841.2185.5652.0514,1.1822.0772,1.8503.0772.8395,0,1.6876-.0342,2.5445-.1028.8564-.0683,1.6616-.1455,2.416-.2313.1195-.0169.2353.0217.3469.1157.1111.0943.2095.2185.2956.3727.0854.1542.1496.3301.1926.5268.0427.1971.0643.3899.0643.5782,0,.2571-.0429.4927-.1286.7068-.0859.2144-.2311.347-.4369.3984-1.0794.3084-2.2101.5526-3.3924.7324-1.1822.1799-2.3645.2699-3.5467.2699-.6513,0-1.298-.0341-1.9405-.1028-.6425-.0682-1.2637-.171-1.8633-.3084-.4458-.1028-.8057-.3213-1.0794-.6554-.2743-.3341-.4286-.7068-.4627-1.118-.0172-.3253-.0302-.6466-.0385-.9638-.0088-.3168-.0128-.6382-.0128-.9639,0-1.4046.0726-2.8355.2183-4.292.1455-1.4561.3469-2.9299.604-4.4205.0682-.3426.2571-.5867.5655-.7325.3084-.1454.6594-.2185,1.0537-.2185.2571,0,.5095.0258.7581.0772.2483.0514.4713.1245.6683.2185.1968.0943.3511.2056.4627.3341.1111.1284.1582.2699.1413.424-.1541,1.1139-.2743,2.2231-.3596,3.3282-.0861,1.1052-.1286,2.2062-.1286,3.3026,0,.3084.0039.6128.0128.9124.0083.3.0213.5955.0385.8867ZM170.2158,157.2313c.1028-.908.1798-1.9187.2311-3.0326.0515-1.1137.094-2.2874.1286-3.521h-3.0197c-.5571,0-1.0755.0088-1.5549.0256-.343.0173-.6001-.1369-.7711-.4626-.1715-.3253-.2571-.6767-.2571-1.0538,0-.3253.0599-.6168.1798-.8739.1197-.257.2995-.3939.5397-.4112.5483-.0341,1.1265-.0643,1.7349-.0899.6079-.0258,1.2207-.0386,1.8375-.0386h.6555c.2139,0,.4325.0088.6553.0258v-1.0538h-3.0197c-.5571,0-1.0755.0088-1.5549.0258-.343.0173-.6001-.1369-.7711-.4626-.1715-.3253-.2571-.6767-.2571-1.0538,0-.3253.0599-.6169.1798-.8739.1197-.257.2995-.3939.5397-.4112.5309-.0342,1.1008-.0643,1.7092-.09.6079-.0256,1.2119-.0385,1.812-.0385h.6553c.2142,0,.4325.0088.6555.0258l-.0773-2.4416c-.0172-.3426.1671-.6125.5527-.8096.3854-.1968.8007-.2956,1.2465-.2956.3766,0,.7195.0772,1.0279.2313s.4968.4028.5655.7453c.2571,1.5935.4453,3.3499.5655,5.2688.1197,1.9191.1798,3.8125.1798,5.6799,0,.9424-.0128,1.8504-.0385,2.7242s-.0731,1.6878-.1413,2.4416c-.0346.3084-.2402.5309-.617.6683-.3771.1369-.8054.2056-1.285.2056-.2914,0-.5782-.0217-.8609-.0643-.2829-.0429-.5314-.1116-.7453-.2056-.2144-.0943-.3857-.2056-.5142-.3341-.1283-.1284-.1842-.2783-.1668-.4498Z" fill="#f4f9fc" stroke-width="0"/>
  <path d="M184.1965,139.9603c-.0172-.3426.1671-.608.5527-.7967.3854-.1884.8007-.2827,1.2465-.2827.3937,0,.7581.0814,1.0922.2441.3341.1631.5181.4242.5525.7839.0856.8225.1582,1.628.2186,2.4159.0599.7884.1067,1.5766.1413,2.3645.6337-.171,1.2163-.2911,1.7477-.3598.5309-.0682,1.0191-.1028,1.4648-.1028.9766,0,1.7735.1501,2.3902.4498.617.2999,1.1052.7068,1.4651,1.2207.3596.5141.6168,1.1052.7711,1.7733.1541.6683.248,1.3622.2826,2.0818.0169.2402.0258.4799.0258.7195v.7197c0,1.0112-.0473,1.9918-.1413,2.9428-.0945.9509-.2102,1.966-.3471,3.0455-.0343.2743-.2228.4756-.5652.604-.343.1286-.7112.1928-1.1052.1928-.4458,0-.8611-.0731-1.2465-.2185-.3857-.1454-.5699-.347-.5527-.604.0169-.4454.0258-.8779.0258-1.2979v-1.2209c0-.8052-.0128-1.5934-.0385-2.3645s-.0731-1.6019-.1413-2.493c-.0515-.7195-.2571-1.2762-.6168-1.6706-.3599-.3939-.8398-.5911-1.4393-.5911-.5485,0-1.1739.1888-1.8763.5655v.9509c0,2.5702-.1028,5.243-.3084,8.0187-.0346.2916-.2313.5056-.591.6425-.3599.1369-.7627.2056-1.208.2056-.2917,0-.5782-.0256-.8611-.077-.2826-.0515-.5397-.1241-.7711-.2185-.2313-.0941-.4156-.2096-.5525-.347-.1374-.1369-.1972-.2912-.1798-.4626.2056-2.33.3596-4.6005.4624-6.8108.1028-2.2104.1543-4.4118.1543-6.6052,0-.5655-.0044-1.1349-.013-1.7092-.0088-.5738-.0216-1.1437-.0385-1.7091Z" fill="#f4f9fc" stroke-width="0"/>
  <path d="M199.2571,145.7945c0-.2397.1928-.424.5782-.5526.3857-.1284.8007-.1927,1.2465-.1927.394,0,.7539.0602,1.0794.1798.3253.1201.5054.3.5397.5397.103.8739.1757,1.7477.2186,2.6216.0424.8739.0643,1.7649.0643,2.673,0,1.0452-.0258,2.0817-.077,3.1098-.0515,1.028-.1374,2.0476-.2571,3.0584-.0346.2229-.2274.3816-.5782.4756-.3516.094-.7497.1413-1.1952.1413-.2914,0-.5827-.0173-.8739-.0514-.2914-.0341-.5525-.0855-.7838-.1542-.2313-.0683-.4156-.1498-.5525-.2442-.1374-.094-.1972-.2012-.1801-.3213.2399-1.8504.4198-3.7306.5397-5.6413.1197-1.9104.197-3.7909.2313-5.6414ZM199.0002,139.3178c0-.2398.171-.424.514-.5526.3425-.1286.7365-.1927,1.1822-.1927.4453,0,.865.073,1.2593.2185.394.1457.6082.3642.6425.6553.0856.6342.1499,1.2594.1928,1.8763.0427.6168.0643,1.2252.0643,1.8247,0,.2402-.1842.424-.5525.5526-.3687.1284-.7929.1927-1.2723.1927-.2571,0-.5184-.0168-.7838-.0514-.2659-.0341-.5012-.0899-.7068-.1671-.2056-.077-.3687-.1754-.4884-.2955-.12-.1197-.1715-.2571-.1541-.4113.0341-.5996.0599-1.2079.077-1.8247.0169-.6169.0258-1.2248.0258-1.8247Z" fill="#f4f9fc" stroke-width="0"/>
  <path d="M212.5442,139.9603c-.0172-.3426.1671-.608.5527-.7967.3854-.1884.8007-.2827,1.2465-.2827.3937,0,.7581.0814,1.0922.2441.3341.1631.5181.4242.5525.7839.0856.8225.1582,1.628.2186,2.4159.0599.7884.1067,1.5766.1413,2.3645.6337-.171,1.2163-.2911,1.7477-.3598.5309-.0682,1.0191-.1028,1.4648-.1028.9766,0,1.7735.1501,2.3902.4498.617.2999,1.1052.7068,1.4651,1.2207.3596.5141.6168,1.1052.7711,1.7733.1541.6683.248,1.3622.2826,2.0818.0169.2402.0258.4799.0258.7195v.7197c0,1.0112-.0473,1.9918-.1413,2.9428-.0945.9509-.2102,1.966-.3471,3.0455-.0343.2743-.2228.4756-.5652.604-.343.1286-.7112.1928-1.1052.1928-.4458,0-.8611-.0731-1.2465-.2185-.3857-.1454-.5699-.347-.5527-.604.0169-.4454.0258-.8779.0258-1.2979v-1.2209c0-.8052-.0128-1.5934-.0385-2.3645s-.0731-1.6019-.1413-2.493c-.0515-.7195-.2571-1.2762-.6168-1.6706-.3599-.3939-.8398-.5911-1.4393-.5911-.5485,0-1.1739.1888-1.8763.5655v.9509c0,2.5702-.1028,5.243-.3084,8.0187-.0346.2916-.2313.5056-.591.6425-.3599.1369-.7627.2056-1.208.2056-.2917,0-.5782-.0256-.8611-.077-.2826-.0515-.5397-.1241-.7711-.2185-.2313-.0941-.4156-.2096-.5525-.347-.1374-.1369-.1972-.2912-.1798-.4626.2056-2.33.3596-4.6005.4624-6.8108.1028-2.2104.1543-4.4118.1543-6.6052,0-.5655-.0044-1.1349-.013-1.7092-.0088-.5738-.0216-1.1437-.0385-1.7091Z" fill="#f4f9fc" stroke-width="0"/>
  <path d="M227.6048,145.7945c0-.2397.1928-.424.5782-.5526.3857-.1284.8007-.1927,1.2465-.1927.394,0,.7539.0602,1.0794.1798.3253.1201.5054.3.5397.5397.103.8739.1757,1.7477.2186,2.6216.0424.8739.0643,1.7649.0643,2.673,0,1.0452-.0258,2.0817-.077,3.1098-.0515,1.028-.1374,2.0476-.2571,3.0584-.0346.2229-.2274.3816-.5782.4756-.3516.094-.7497.1413-1.1952.1413-.2914,0-.5827-.0173-.8739-.0514-.2914-.0341-.5525-.0855-.7838-.1542-.2313-.0683-.4156-.1498-.5525-.2442-.1374-.094-.1972-.2012-.1801-.3213.2399-1.8504.4198-3.7306.5397-5.6413.1197-1.9104.197-3.7909.2313-5.6414ZM227.3479,139.3178c0-.2398.171-.424.514-.5526.3425-.1286.7365-.1927,1.1822-.1927.4453,0,.865.073,1.2593.2185.394.1457.6082.3642.6425.6553.0856.6342.1499,1.2594.1928,1.8763.0427.6168.0643,1.2252.0643,1.8247,0,.2402-.1842.424-.5525.5526-.3687.1284-.7929.1927-1.2723.1927-.2571,0-.5184-.0168-.7838-.0514-.2659-.0341-.5012-.0899-.7068-.1671-.2056-.077-.3687-.1754-.4884-.2955-.12-.1197-.1715-.2571-.1541-.4113.0341-.5996.0599-1.2079.077-1.8247.0169-.6169.0258-1.2248.0258-1.8247Z" fill="#f4f9fc" stroke-width="0"/>
  <path d="M246.9831,157.6169c-.0346.9422-.2183,1.7348-.5525,2.3773s-.8012,1.1651-1.4008,1.5678c-.5998.4025-1.3235.694-2.1716.8739-.8481.1799-1.8036.2699-2.8657.2699-.5485,0-1.1224-.0217-1.7219-.0643-.6001-.0429-1.2337-.1072-1.902-.1927-.2743-.0346-.4754-.2402-.604-.6169-.1283-.3771-.1926-.7967-.1926-1.2593,0-.5141.081-.9811.2441-1.4007.1627-.4201.3896-.604.681-.5526.7711.1369,1.4906.2481,2.1589.3341.6683.0855,1.3108.1284,1.9275.1284.6337,0,1.1437-.0987,1.5294-.2955.3854-.1972.5952-.5699.6295-1.1181l.1028-1.799c-.8569.5485-1.9876.8223-3.3924.8223-2.022,0-3.4912-.514-4.4078-1.542-.9168-1.028-1.3751-2.5271-1.3751-4.4977,0-1.028.1413-2.0047.4242-2.9299.2826-.9252.6766-1.7432,1.1822-2.4544.5051-.7108,1.1135-1.2723,1.8247-1.6834.7107-.4112,1.4948-.6169,2.3517-.6169.7536,0,1.4349.1503,2.0431.4498.6082.3,1.1437.7068,1.6064,1.2207v-1.1308c0-.171.0515-.3213.1543-.4497.1028-.1286.2397-.2398.4112-.3341.171-.094.3682-.1671.591-.2185.2225-.0514.4539-.0772.694-.0772.4112,0,.788.0816,1.1307.2442.3427.163.5309.424.5655.7838.1543,1.5079.2654,3.0198.3341,4.5362.0682,1.5164.1028,3.0456.1028,4.5877,0,.8569-.0088,1.7006-.0258,2.5315-.0172.8312-.0429,1.6665-.077,2.5058ZM240.1211,146.5141c-.4286,0-.8096.1116-1.1437.3341-.3341.2228-.6128.5313-.8353.9251-.223.3944-.3898.8526-.5012,1.3751-.1116.5228-.1671,1.0839-.1671,1.6834,0,.4972.077.9168.2313,1.2594.1543.3428.3599.6212.6168.8352.2571.2144.5483.3727.8739.4754.3253.1028.6594.1542,1.0024.1542.7195,0,1.3191-.1883,1.799-.5654.4796-.3767.7198-1.0365.7198-1.9789,0-.5309-.0432-1.0667-.1286-1.6064-.0859-.5397-.2274-1.0236-.4242-1.4521-.197-.4281-.4624-.775-.7966-1.0409-.3341-.2654-.75-.3983-1.2465-.3983Z" fill="#f4f9fc" stroke-width="0"/>
  <path d="M250.0156,139.9603c-.0172-.3426.1671-.608.5527-.7967.3854-.1884.8007-.2827,1.2465-.2827.3937,0,.7581.0814,1.0922.2441.3341.1631.5181.4242.5525.7839.0856.8225.1582,1.628.2186,2.4159.0599.7884.1067,1.5766.1413,2.3645.6337-.171,1.2163-.2911,1.7477-.3598.5309-.0682,1.0191-.1028,1.4648-.1028.9766,0,1.7735.1501,2.3902.4498.617.2999,1.1052.7068,1.4651,1.2207.3596.5141.6168,1.1052.7711,1.7733.1541.6683.248,1.3622.2826,2.0818.0169.2402.0258.4799.0258.7195v.7197c0,1.0112-.0473,1.9918-.1413,2.9428-.0945.9509-.2102,1.966-.3471,3.0455-.0343.2743-.2228.4756-.5652.604-.343.1286-.7112.1928-1.1052.1928-.4458,0-.8611-.0731-1.2465-.2185-.3857-.1454-.5699-.347-.5527-.604.0169-.4454.0258-.8779.0258-1.2979v-1.2209c0-.8052-.0128-1.5934-.0385-2.3645s-.0731-1.6019-.1413-2.493c-.0515-.7195-.2571-1.2762-.6168-1.6706-.3599-.3939-.8398-.5911-1.4393-.5911-.5485,0-1.1739.1888-1.8763.5655v.9509c0,2.5702-.1028,5.243-.3084,8.0187-.0346.2916-.2313.5056-.591.6425-.3599.1369-.7627.2056-1.208.2056-.2917,0-.5782-.0256-.8611-.077-.2826-.0515-.5397-.1241-.7711-.2185-.2313-.0941-.4156-.2096-.5525-.347-.1374-.1369-.1972-.2912-.1798-.4626.2056-2.33.3596-4.6005.4624-6.8108.1028-2.2104.1543-4.4118.1543-6.6052,0-.5655-.0044-1.1349-.013-1.7092-.0088-.5738-.0216-1.1437-.0385-1.7091Z" fill="#f4f9fc" stroke-width="0"/>
  <path d="M265.1019,155.6636c.0169-.2397.1884-.4152.514-.5268.3253-.1113.7024-.1671,1.131-.1671.2569,0,.514.0217.7711.0643.2569.0429.4882.1072.6938.1928.2056.0859.3727.1887.5012.3084.1286.1201.2012.2658.2186.4369.0341.3944.0643.767.0898,1.118.0258.3514.0385.6983.0385,1.0409,0,.2056-.0044.4112-.0128.6168-.0088.2057-.0216.4281-.0385.6683-.0172.2225-.1928.3855-.527.4883s-.724.1542-1.1692.1542c-.2917,0-.5912-.0217-.8996-.0643-.3084-.0429-.5827-.1072-.8223-.1927-.2402-.086-.433-.1928-.5785-.3213-.1457-.1286-.21-.2787-.1926-.4498.0682-.5999.1241-1.1609.1671-1.6834.0424-.5224.081-1.0834.1155-1.6834ZM265.2562,139.5748c0-.1369.0554-.261.1671-.3727.1111-.1113.2569-.2056.4369-.2827.1798-.077.3854-.1369.6168-.1798.2313-.0427.4666-.0643.7068-.0643.3766,0,.7151.0602,1.0152.1798.2995.1201.4666.3173.5012.5911.1884,1.3879.3253,2.7629.4112,4.125.0856,1.3622.1286,2.7372.1286,4.125,0,.8739-.013,1.7348-.0385,2.5829-.0258.8481-.0731,1.7091-.1416,2.5829-.0172.2743-.2183.4715-.6037.5911-.3857.1201-.827.1799-1.3238.1799-.2743,0-.5485-.0168-.8223-.0514-.2743-.0341-.5184-.0899-.7325-.1671-.2144-.0772-.3854-.1627-.514-.257-.1286-.094-.1842-.2096-.1671-.347.1369-1.5589.2441-3.1311.3214-4.7162.077-1.5846.1155-3.1908.1155-4.8188,0-1.1992-.0258-2.4328-.077-3.701Z" fill="#f4f9fc" stroke-width="0"/>
</svg>