<?xml version="1.0" encoding="UTF-8"?>
<svg id="Layer_1" data-name="Layer 1" xmlns="http://www.w3.org/2000/svg" version="1.1" viewBox="0 0 30 30">
  <path d="M30,19.3984c0,1.7387-.5837,3.3542-1.5866,4.6978-.6502.983-1.6125,2.0056-2.8359,2.9535-3.4108,2.6425-7.5657,3.7072-9.2814,2.3781-1.0791-.836-.579-2.0796.1876-2.9279.9273-1.026,2.4661-1.6509,3.3416-2.6996-3.8051.9492-7.9847,1.7742-12.0136,1.4887-.9215-.0653-1.8576-.2008-2.6996-.5087-2.6759-.9784-4.0874-2.9676-4.3172-5.204C.7948,19.5762-2.6743.9949,4.8826.0345c7.5556-.9595,4.4624,18.4067,4.4607,18.4171.1206-.7436,2.0706-1.21,2.8182-1.4067,2.136-.5617,4.5591-.6993,6.7939-.8811.111-.009.2348-.0006.3373.0094-.5661-.7161-1.3171-1.363-1.9663-2.0355-.5428-.5622-1.3437-1.2301-1.5743-1.9283-.3721-1.1269-.2213-2.0961.544-2.689,1.7155-1.3291,5.8706-.2644,9.2813,2.3781.698.5408,1.3101,1.1055,1.8282,1.6733,1.6069,1.5138,2.5944,3.5665,2.5944,5.8265Z" fill="#757575" stroke-width="0"/>
</svg>