<?xml version="1.0" encoding="UTF-8"?>
<svg id="Layer_1" data-name="Layer 1" xmlns="http://www.w3.org/2000/svg" version="1.1" viewBox="0 0 12 15">
  <path d="M11.98,2.57c.06-.21,0-.42-.16-.58-.15-.15-.37-.21-.58-.15l-3.44.92c-.11.03-.21.08-.28.16-.98-.29-2.06-.29-3.04,0-.07-.08-.17-.13-.28-.16L.76,1.84c-.21-.06-.43,0-.58.15-.16.16-.22.37-.16.58l.92,3.45c.02.07.06.14.11.21-.19.55-.29,1.13-.29,1.71,0,1.08.32,2.11.93,2.99.05.58.01,1.09-.11,1.51-.01.03,0,.06.02.08.02.02.05.03.08.02.01,0,.57-.18,1.13-.44.92.71,2.02,1.08,3.19,1.08s2.27-.37,3.19-1.08c.56.26,1.12.44,1.13.44.03.01.06,0,.08-.02.02-.02.03-.05.02-.08-.12-.42-.16-.93-.11-1.51.61-.88.93-1.91.93-2.99,0-.58-.1-1.16-.29-1.71.05-.07.09-.14.11-.21l.92-3.45Z" fill="#e9e9e9" stroke-width="0"/>
</svg>