<?xml version="1.0" encoding="UTF-8"?>
<svg id="Layer_1" data-name="Layer 1" xmlns="http://www.w3.org/2000/svg" version="1.1" viewBox="0 0 12 15">
  <path d="M12,5.5407c0-.55-.81-.97-1.83-.97-.47,0-.91.09-1.25.26-.22-.15-.45-.27-.68-.39l.17-.98c.02,0,.04-.01.0601-.01l1.8799-.69c.28-.1.4301-.41.33-.69-.05-.14-.15-.24-.28-.31-.13-.06-.28-.06-.42-.01l-1.35.49.21-1.11c.05-.3-.15-.58-.44-.63-.29-.06-.57.14-.63.43l-.57,3.16c-.79-.19-1.62-.19-2.41,0l-.5699-3.16c-.03-.14-.11-.2599-.23-.34-.11-.09-.26-.12-.4-.09-.29.05-.4901.33-.44.63l.21,1.11-1.35-.49c-.14-.05-.29-.05-.42.01-.13.07-.23.17-.28.31s-.04.28.02.41c.06.1299.17.23.31.28l1.88.69c.02,0,.04.01.06.01l.17.98c-.23.12-.46.24-.68.39-.34-.17-.78-.26-1.25-.26-1.02,0-1.82.42-1.82.97,0,.48.61.87,1.47.96-.5.82-.76,1.76-.76,2.73,0,2.91,2.37,5.28,5.29,5.28,2.91,0,5.28-2.37,5.28-5.28,0-.97-.26-1.91-.76-2.73.86-.09,1.48-.48,1.48-.96Z" fill="#e9e9e9" stroke-width="0"/>
</svg>